<svg width="24" height="24" fill="none" xmlns="http://www.w3.org/2000/svg"><path fill-rule="evenodd" clip-rule="evenodd" d="M11.5 5.5c-.451 0-1.131.237-1.131.237A4.898 4.898 0 0 0 6.6 10.5v5.417a1.8 1.8 0 0 1-.527 1.273l-.21.21h11.274l-.21-.21a1.8 1.8 0 0 1-.527-1.273V10.5c0-2.307-1.61-4.25-3.77-4.763 0 0-.68-.237-1.13-.237Zm8.383 12.383a.4.4 0 0 1 .117.283v.434a.4.4 0 0 1-.4.4H3.4a.4.4 0 0 1-.4-.4v-.434a.4.4 0 0 1 .117-.283l1.824-1.824A.2.2 0 0 0 5 15.917V10.5c0-3.07 2.13-5.64 5-6.32V3.5a1.5 1.5 0 1 1 3 0v.68c2.86.68 5 3.25 5 6.32v5.417a.2.2 0 0 0 .059.142l1.824 1.824ZM13.5 20h-4a2 2 0 1 0 4 0Z" fill="#000"/></svg>