<svg width="24" height="24" fill="none" xmlns="http://www.w3.org/2000/svg"><path fill-rule="evenodd" clip-rule="evenodd" d="M18 10.9v5.017a.2.2 0 0 0 .059.142l1.824 1.824a.4.4 0 0 1 .117.283v.434a.4.4 0 0 1-.4.4H3.4a.4.4 0 0 1-.4-.4v-.434a.4.4 0 0 1 .117-.283l1.824-1.824A.2.2 0 0 0 5 15.917V10.5c0-3.07 2.13-5.64 5-6.32V3.5a1.5 1.5 0 0 1 2.94-.42 4.973 4.973 0 0 0-.921 2.487A2.593 2.593 0 0 0 11.5 5.5c-.451 0-1.131.237-1.131.237A4.898 4.898 0 0 0 6.6 10.5v5.417a1.8 1.8 0 0 1-.527 1.273l-.21.21h11.274l-.21-.21a1.8 1.8 0 0 1-.527-1.273v-4.953A5.056 5.056 0 0 0 18 10.9Zm-8.408 9.7A2 2 0 0 1 9.5 20h4a2 2 0 0 1-3.908.6Z" fill="#000"/><circle cx="17" cy="6" r="3" fill="#FA1F1F"/></svg>