<svg width="24" height="24" fill="none" xmlns="http://www.w3.org/2000/svg"><path fill-rule="evenodd" clip-rule="evenodd" d="m18.354 13.68-.017-.02a2.49 2.49 0 0 1 0-3.32l.006-.008.826-.912-1.322-2.247-1.252.249h-.004a2.53 2.53 0 0 1-1.74-.275c-.532-.3-.94-.784-1.14-1.368l-.002-.005-.398-1.173h-2.729l-.36 1.157-.007.021a2.504 2.504 0 0 1-1.14 1.368 2.53 2.53 0 0 1-1.737.277l-1.247-.242-1.325 2.252.813.905a2.49 2.49 0 0 1 0 3.322l-.002.002-.81.903 1.33 2.26 1.25-.248h.005a2.53 2.53 0 0 1 1.741.275c.531.3.94.784 1.14 1.368l.002.005.398 1.173h2.742l.4-1.178c.2-.584.608-1.068 1.14-1.368a2.53 2.53 0 0 1 1.74-.276l.005.001 1.25.249 1.315-2.234-.871-.913Zm2.412.21a.892.892 0 0 1 .11 1.053l-1.832 3.113a.91.91 0 0 1-.42.372.93.93 0 0 1-.56.06l-1.723-.342a.93.93 0 0 0-.641.101.904.904 0 0 0-.412.493l-.559 1.647a.9.9 0 0 1-.335.444.927.927 0 0 1-.535.168h-3.665a.93.93 0 0 1-.562-.155.902.902 0 0 1-.354-.457L8.72 18.74a.904.904 0 0 0-.413-.493.93.93 0 0 0-.641-.1l-1.722.341a.93.93 0 0 1-.562-.06.91.91 0 0 1-.418-.372L3.13 14.943a.887.887 0 0 1 .092-1.053l1.163-1.296a.89.89 0 0 0 0-1.188L3.223 10.11a.892.892 0 0 1-.092-1.053l1.833-3.113a.91.91 0 0 1 .391-.352.93.93 0 0 1 .525-.08l1.768.342a.93.93 0 0 0 .641-.101.904.904 0 0 0 .412-.493l.513-1.647a.902.902 0 0 1 .353-.457A.928.928 0 0 1 10.13 3h3.665c.192 0 .379.059.535.168.156.11.273.265.335.444l.559 1.647a.904.904 0 0 0 .412.493.93.93 0 0 0 .641.1L18 5.513a.931.931 0 0 1 .56.06.91.91 0 0 1 .42.372l1.832 3.113a.887.887 0 0 1-.11 1.053l-1.173 1.296a.89.89 0 0 0 0 1.188l1.237 1.296Z" fill="#261E2F"/><path fill-rule="evenodd" clip-rule="evenodd" d="M12 10.3a1.7 1.7 0 1 0 0 3.4 1.7 1.7 0 0 0 0-3.4ZM8.7 12a3.3 3.3 0 1 1 6.6 0 3.3 3.3 0 0 1-6.6 0Z" fill="#261E2F"/></svg>