<svg width="24" height="24" fill="none" xmlns="http://www.w3.org/2000/svg"><path d="M20 5.4a.4.4 0 0 0-.4-.4H4.4a.4.4 0 0 0-.4.4v.8c0 .22.18.4.4.4h15.2a.4.4 0 0 0 .4-.4v-.8ZM9 11.6a.4.4 0 0 0-.4-.4H4.4a.4.4 0 0 0-.4.4v.8c0 .22.18.4.4.4h4.2a.4.4 0 0 0 .4-.4v-.8ZM4.4 19a.4.4 0 0 1-.4-.4v-.8c0-.22.18-.4.4-.4h4.2c.22 0 .4.18.4.4v.8a.4.4 0 0 1-.4.4H4.4ZM16.5 14.8a1 1 0 1 1-2 0 1 1 0 0 1 2 0Z" fill="#261E2F"/><path fill-rule="evenodd" clip-rule="evenodd" d="m15.916 19.885 3.668-2.195a.868.868 0 0 0 .416-.746v-4.388a.868.868 0 0 0-.416-.746l-3.668-2.195a.806.806 0 0 0-.832 0l-3.668 2.195a.868.868 0 0 0-.416.746v4.388c0 .308.159.592.416.746l3.668 2.195a.806.806 0 0 0 .832 0ZM15.5 11.23l-2.9 1.735v3.568l2.9 1.735 2.9-1.735v-3.568l-2.9-1.735Z" fill="#261E2F"/></svg>