<svg width="24" height="24" fill="none" xmlns="http://www.w3.org/2000/svg"><path d="M20 5.4a.4.4 0 0 0-.4-.4H4.4a.4.4 0 0 0-.4.4v.8c0 .22.18.4.4.4h15.2a.4.4 0 0 0 .4-.4v-.8ZM10 11.6a.4.4 0 0 0-.4-.4H4.4a.4.4 0 0 0-.4.4v.8c0 .22.18.4.4.4h5.2a.4.4 0 0 0 .4-.4v-.8ZM4 18.6c0 .22.18.4.4.4h5.2a.4.4 0 0 0 .4-.4v-.8a.4.4 0 0 0-.4-.4H4.4a.4.4 0 0 0-.4.4v.8Z" fill="#261E2F"/><path fill-rule="evenodd" clip-rule="evenodd" d="M15.5 18.5a4.48 4.48 0 0 0 2.22-.585l1.91 2.29a.4.4 0 0 0 .563.051l.614-.512a.4.4 0 0 0 .052-.563l-1.91-2.291a4.5 4.5 0 1 0-3.45 1.61Zm0-1.6a2.9 2.9 0 1 0 0-5.8 2.9 2.9 0 0 0 0 5.8Z" fill="#261E2F"/></svg>