<svg width="24" height="24" fill="none" xmlns="http://www.w3.org/2000/svg"><path fill-rule="evenodd" clip-rule="evenodd" d="M15.248 18.13a1 1 0 0 1 .194-.384l3.557-4.366a.4.4 0 0 1 .56-.059l.624.501a.4.4 0 0 1 .06.565l-3.559 4.367a1 1 0 0 1-.324.26l-1.144.58a.2.2 0 0 1-.284-.229l.316-1.235Z" fill="#000"/><path d="M20 5.4a.4.4 0 0 0-.4-.4H4.4a.4.4 0 0 0-.4.4v.8c0 .22.18.4.4.4h15.2a.4.4 0 0 0 .4-.4v-.8ZM15 11.6a.4.4 0 0 0-.4-.4H4.4a.4.4 0 0 0-.4.4v.8c0 .22.18.4.4.4h10.2a.4.4 0 0 0 .4-.4v-.8ZM4.4 19a.4.4 0 0 1-.4-.4v-.8c0-.22.18-.4.4-.4h5.553a.4.4 0 0 1 .4.4v.8a.4.4 0 0 1-.4.4H4.4Z" fill="#000"/></svg>