<svg width="24" height="24" fill="none" xmlns="http://www.w3.org/2000/svg"><path fill-rule="evenodd" clip-rule="evenodd" d="M10.828 2.476a1.68 1.68 0 0 1 2.344 0l8.543 8.368c.182.178.285.42.285.675v9.53c0 .53-.438.951-.965.951h-6.95a.958.958 0 0 1-.965-.951v-4.495h-2.24v4.495c0 .53-.437.951-.965.951h-6.95A.958.958 0 0 1 2 21.049v-9.53c0-.254.103-.497.285-.675l8.543-8.368Zm-6.897 9.438v8.184H8.95v-4.495c0-.53.437-.95.965-.95h4.17c.528 0 .965.42.965.95v4.495h5.02v-8.184L12 4.01l-8.07 7.904Z" fill="#261E2F"/></svg>