<svg width="24" height="24" fill="none" xmlns="http://www.w3.org/2000/svg"><path fill-rule="evenodd" clip-rule="evenodd" d="M12.244 4.034a.84.84 0 0 0-.59.043l-8.33 3.97-.086.049c-.344.227-.315.665.086.856l.886.422v4.264c0 .11.09.2.2.2h1.2a.2.2 0 0 0 .2-.2v-3.501l1.386.661-.17.525c-.675 2.086-1.104 3.502-1.293 4.278l-.072.32C5.257 17.963 7.343 19.69 12 19.69c4.795 0 7.083-1.728 6.393-3.86-.194-.6-.724-1.921-1.6-3.99l-.367-.86 4.25-2.028.086-.048c.344-.227.315-.665-.086-.856l-8.32-3.97-.112-.044Zm2.738 7.636-2.626 1.253a.84.84 0 0 1-.59.043l-.112-.043-3-1.43L8.168 13c-.528 1.67-.843 2.754-.937 3.23-.175.884 1.003 1.859 4.769 1.859 2.238 0 3.686-.352 4.425-.91.417-.315.52-.627.446-.858l-.06-.176c-.242-.687-.83-2.13-1.755-4.3l-.074-.176ZM6.091 8.5l5.912-2.818 5.904 2.817-5.904 2.818L6.092 8.5Z" fill="#261E2F"/></svg>