<svg width="24" height="24" fill="none" xmlns="http://www.w3.org/2000/svg"><path fill-rule="evenodd" clip-rule="evenodd" d="M9.8 3.5a.4.4 0 0 0-.4-.4h-.8a.4.4 0 0 0-.4.4v.75h-.12c-1.708 0-2.563 0-3.213.338a3 3 0 0 0-1.28 1.279c-.337.65-.337 1.505-.337 3.213v6.84c0 1.708 0 2.563.338 3.213a3 3 0 0 0 1.28 1.28c.65.337 1.504.337 3.212.337h7.84c1.708 0 2.563 0 3.213-.338a3 3 0 0 0 1.28-1.28c.337-.65.337-1.504.337-3.212V9.08c0-1.708 0-2.563-.338-3.213a3 3 0 0 0-1.28-1.28c-.65-.337-1.504-.337-3.212-.337h-.12V3.5a.4.4 0 0 0-.4-.4h-.8a.4.4 0 0 0-.4.4v.75H9.8V3.5ZM5 9.3h14V7.7H5v1.6Zm2 2.5a.3.3 0 0 1 .3-.3h1.4a.3.3 0 0 1 .3.3v1.4a.3.3 0 0 1-.3.3H7.3a.3.3 0 0 1-.3-.3v-1.4Zm4 0a.3.3 0 0 1 .3-.3h1.4a.3.3 0 0 1 .3.3v1.4a.3.3 0 0 1-.3.3h-1.4a.3.3 0 0 1-.3-.3v-1.4Zm4.3-.3a.3.3 0 0 0-.3.3v1.4a.3.3 0 0 0 .3.3h1.4a.3.3 0 0 0 .3-.3v-1.4a.3.3 0 0 0-.3-.3h-1.4ZM7 15.3a.3.3 0 0 1 .3-.3h1.4a.3.3 0 0 1 .3.3v1.4a.3.3 0 0 1-.3.3H7.3a.3.3 0 0 1-.3-.3v-1.4Zm4.3-.3a.3.3 0 0 0-.3.3v1.4a.3.3 0 0 0 .3.3h1.4a.3.3 0 0 0 .3-.3v-1.4a.3.3 0 0 0-.3-.3h-1.4Zm3.7.3a.3.3 0 0 1 .3-.3h1.4a.3.3 0 0 1 .3.3v1.4a.3.3 0 0 1-.3.3h-1.4a.3.3 0 0 1-.3-.3v-1.4Z" fill="#000"/></svg>