<svg width="24" height="24" fill="none" xmlns="http://www.w3.org/2000/svg"><path d="M7 11.8a.3.3 0 0 1 .3-.3h1.4a.3.3 0 0 1 .3.3v1.4a.3.3 0 0 1-.3.3H7.3a.3.3 0 0 1-.3-.3v-1.4ZM11 11.8a.3.3 0 0 1 .3-.3h1.4a.3.3 0 0 1 .3.3v1.4a.3.3 0 0 1-.3.3h-1.4a.3.3 0 0 1-.3-.3v-1.4ZM15.3 11.5a.3.3 0 0 0-.3.3v1.4a.3.3 0 0 0 .3.3h1.4a.3.3 0 0 0 .3-.3v-1.4a.3.3 0 0 0-.3-.3h-1.4ZM7 15.3a.3.3 0 0 1 .3-.3h1.4a.3.3 0 0 1 .3.3v1.4a.3.3 0 0 1-.3.3H7.3a.3.3 0 0 1-.3-.3v-1.4ZM11.3 15a.3.3 0 0 0-.3.3v1.4a.3.3 0 0 0 .3.3h1.4a.3.3 0 0 0 .3-.3v-1.4a.3.3 0 0 0-.3-.3h-1.4ZM15 15.3a.3.3 0 0 1 .3-.3h1.4a.3.3 0 0 1 .3.3v1.4a.3.3 0 0 1-.3.3h-1.4a.3.3 0 0 1-.3-.3v-1.4Z" fill="#261E2F"/><path fill-rule="evenodd" clip-rule="evenodd" d="M9.8 3.5a.4.4 0 0 0-.4-.4h-.8a.4.4 0 0 0-.4.4v.75h-.12c-1.708 0-2.563 0-3.213.338a3 3 0 0 0-1.28 1.28c-.337.65-.337 1.504-.337 3.212v6.84c0 1.708 0 2.563.338 3.213a3 3 0 0 0 1.28 1.28c.65.337 1.504.337 3.212.337h7.84c1.708 0 2.563 0 3.213-.338a2.999 2.999 0 0 0 1.28-1.28c.337-.65.337-1.504.337-3.212V9.08c0-1.708 0-2.563-.338-3.213a3 3 0 0 0-1.28-1.28c-.65-.337-1.504-.337-3.212-.337h-.12V3.5a.4.4 0 0 0-.4-.4h-.8a.4.4 0 0 0-.4.4v.75H9.8V3.5ZM8.08 5.85h.12v.25c0 .22.179.4.4.4h.8a.4.4 0 0 0 .4-.4v-.25h4.4v.25c0 .22.179.4.4.4h.8a.4.4 0 0 0 .4-.4v-.25h.12c.881 0 1.444.001 1.87.037.409.034.547.09.605.12a1.4 1.4 0 0 1 .597.598c.03.058.087.196.121.604.012.146.02.307.026.491H4.86c.006-.184.014-.345.026-.49.034-.409.09-.547.12-.605a1.4 1.4 0 0 1 .598-.597c.058-.03.196-.087.604-.121.427-.036.99-.037 1.871-.037ZM4.85 9.3v6.62c0 .881.001 1.444.037 1.87.034.409.09.547.12.605a1.4 1.4 0 0 0 .598.597c.058.03.196.087.604.121.427.036.99.037 1.871.037h7.84c.881 0 1.444-.001 1.87-.037.409-.034.547-.09.605-.12a1.4 1.4 0 0 0 .597-.598c.03-.058.087-.196.121-.604.036-.427.037-.99.037-1.871V9.3H4.85Z" fill="#261E2F"/></svg>