<svg width="24" height="24" fill="none" xmlns="http://www.w3.org/2000/svg"><path fill-rule="evenodd" clip-rule="evenodd" d="M5.71 8.272c.747-3.455 3.923-6.022 7.692-6.022 4.315 0 7.861 3.364 7.848 7.576a7.37 7.37 0 0 1-1.256 4.107l-.012.019-.013.017a.621.621 0 0 0-.06.096l.633 2.25c.025.085.041.172.048.26l.002.03v.028a1.076 1.076 0 0 1-1.077 1.077h-.038l-.038-.004a1.304 1.304 0 0 1-.35-.086l-2.32-.823-.019-.007a.312.312 0 0 0-.121-.024h-.002a.33.33 0 0 0-.116.02c-.13.05-.61.226-1.105.361-.474.13-1.396.342-2.127.342-4.346 0-7.738-3.475-7.738-7.66 0-.524.057-1.046.168-1.557Zm7.692-4.522c-3.088 0-5.634 2.1-6.227 4.84a5.83 5.83 0 0 0-.134 1.239c0 3.357 2.721 6.16 6.238 6.16.52 0 1.281-.165 1.73-.288.43-.118.862-.276.97-.317a1.837 1.837 0 0 1 1.327.012l1.577.56-.454-1.613v-.002a1.19 1.19 0 0 1 .028-.679c.05-.158.123-.298.181-.399l.005-.007c.036-.06.075-.12.117-.176a5.87 5.87 0 0 0 .99-3.256v-.002c.01-3.323-2.802-6.072-6.348-6.072Zm-8.416 7.592a.75.75 0 0 1 .298 1.018 4.363 4.363 0 0 0 .184 4.491l.003.004c.048.074.108.172.153.282a.945.945 0 0 1 .057.577l-.014.077-.048.249-.174.92 1.093-.435c.313-.126.663-.122.973.01a4.904 4.904 0 0 0 1.775.356 4.58 4.58 0 0 0 2.333-.637.75.75 0 1 1 .762 1.292 6.078 6.078 0 0 1-3.095.845 6.384 6.384 0 0 1-2.273-.44l.082-.034a.226.226 0 0 1-.173-.003l.013.006.014.004.064.026-1.815.723.017-.008-.303-.686.278.697.008-.003a1.024 1.024 0 0 1-1.032-.151l-.014-.012a1.027 1.027 0 0 1-.342-.977l.737.14-.736-.142v-.002l.196-1.038.167-.88.041.065c.02.03.027.044.027.044l-.004-.009a.374.374 0 0 1-.013-.039l.617-.407-.619.402a.614.614 0 0 1-.009-.27l-.04.215a5.862 5.862 0 0 1-.206-5.972.75.75 0 0 1 1.018-.298Zm-.166 8.383.005.001.459.087v.004m-.464-.092.464.088m0 0Zm-.474-.09h.003-.003Z" fill="#000"/></svg>