<svg width="24" height="24" fill="none" xmlns="http://www.w3.org/2000/svg"><path d="M5.403 2A3.369 3.369 0 0 0 2 5.403v2.162a.743.743 0 1 0 1.485 0V5.403c0-1.086.832-1.918 1.918-1.918h2.162a.743.743 0 1 0 0-1.485H5.403ZM16.436 2a.743.743 0 1 0 0 1.485h2.161c1.086 0 1.918.832 1.918 1.918v2.162a.743.743 0 1 0 1.485 0V5.403A3.369 3.369 0 0 0 18.597 2h-2.162ZM12.513 8.846a.757.757 0 0 0-.757.758v3.594c0 .057-.01.08-.014.085-.005.003-.027.013-.086.013h-.341a.757.757 0 0 0 0 1.515h.341c.932 0 1.614-.68 1.614-1.613V9.604a.757.757 0 0 0-.757-.758ZM8.063 8.846a.757.757 0 0 0-.757.758v1.37a.757.757 0 0 0 1.515 0v-1.37a.757.757 0 0 0-.758-.758ZM16.107 8.846a.757.757 0 0 0-.757.758v1.37a.757.757 0 0 0 1.515 0v-1.37a.757.757 0 0 0-.758-.758ZM9.436 15.725a.757.757 0 0 0-1.034 1.108c.998.93 2.21 1.402 3.598 1.402 1.387 0 2.6-.471 3.597-1.402a.757.757 0 0 0-1.033-1.108c-.714.666-1.556.995-2.564.995-1.01 0-1.85-.329-2.564-.995ZM2.743 15.693a.743.743 0 0 0-.743.743v2.161A3.369 3.369 0 0 0 5.403 22h2.162a.743.743 0 1 0 0-1.485H5.403a1.884 1.884 0 0 1-1.918-1.918v-2.162a.743.743 0 0 0-.742-.742ZM21.257 15.693a.743.743 0 0 0-.742.743v2.161a1.884 1.884 0 0 1-1.918 1.918h-2.162a.743.743 0 1 0 0 1.485h2.162A3.369 3.369 0 0 0 22 18.597v-2.162a.743.743 0 0 0-.743-.742Z" fill="#261E2F"/></svg>