<svg width="24" height="24" fill="none" xmlns="http://www.w3.org/2000/svg"><path fill-rule="evenodd" clip-rule="evenodd" d="M12 19.9a7.9 7.9 0 1 0 0-15.8 7.9 7.9 0 0 0 0 15.8Zm0 1.6a9.5 9.5 0 1 0 0-19 9.5 9.5 0 0 0 0 19Z" fill="#261E2F"/><path fill-rule="evenodd" clip-rule="evenodd" d="m12 10.869 1.98-1.98a.4.4 0 0 1 .566 0l.565.565a.4.4 0 0 1 0 .566L13.131 12l1.98 1.98a.4.4 0 0 1 0 .566l-.565.565a.4.4 0 0 1-.566 0L12 13.131l-1.98 1.98a.4.4 0 0 1-.566 0l-.565-.565a.4.4 0 0 1 0-.566l1.98-1.98-1.98-1.98a.4.4 0 0 1 0-.566l.565-.565a.4.4 0 0 1 .566 0l1.98 1.98Z" fill="#261E2F"/></svg>