<svg width="24" height="24" fill="none" xmlns="http://www.w3.org/2000/svg"><path d="M5.542 11.953c0-1.08.48-2.983 1.69-4.489a.122.122 0 0 0-.001-.154l-.705-.846a.35.35 0 0 0-.542-.002c-1.452 1.81-2.042 4.071-2.042 5.491 0 1.386-.025 2.115-.565 2.783a.326.326 0 0 0 .011.435l.707.707a.285.285 0 0 0 .418-.007c1.03-1.179 1.03-2.478 1.029-3.818v-.1ZM8.255 4.537a.381.381 0 0 0-.1.581l.527.633c.124.15.338.186.513.099 1.03-.517 2.321-.763 3.935-.534 3.092.437 4.736 2.208 5.48 4.391.73 2.141.595 4.702-.036 6.778a.306.306 0 0 0 .193.381l.95.316a.294.294 0 0 0 .375-.19c.718-2.334.899-5.263.033-7.802-.922-2.7-3.028-4.929-6.771-5.459-2.071-.293-3.758.072-5.099.806ZM12.874 12.023h-1.32a.148.148 0 0 0-.147.149c.002.35.007 1.046-.038 1.854-.028.499-.075 1.02-.147 1.51a.41.41 0 0 0 .253.444l.769.3c.23.09.486-.049.526-.293.106-.636.164-1.293.196-1.872.049-.864.043-1.616.041-1.96a.133.133 0 0 0-.133-.132ZM11.958 18.529a.39.39 0 0 0-.216-.53l-.747-.292a.41.41 0 0 0-.518.209 14.58 14.58 0 0 1-.785 1.427.283.283 0 0 0 .08.388l.434.292.39.26a.326.326 0 0 0 .455-.095 17.34 17.34 0 0 0 .907-1.66Z" fill="#000"/><path d="M9.502 10.54c-.453.805-.46 1.744-.46 1.983 0 1.774-.124 2.878-.416 3.753-.255.764-.632 1.322-1.037 1.922a.327.327 0 0 1-.452.089l-.774-.517a.343.343 0 0 1-.095-.476c.41-.61.659-.98.84-1.524.208-.625.334-1.52.334-3.247v-.008c0-.28 0-1.575.665-2.759a3.88 3.88 0 0 1 1.68-1.606c.797-.394 1.801-.56 3.043-.422.479.053.908.16 1.292.314.225.09.289.368.146.564l-.498.686a.443.443 0 0 1-.487.15 3.591 3.591 0 0 0-.63-.124c-1.007-.112-1.691.035-2.158.266a2.28 2.28 0 0 0-.993.957ZM15.03 11.418a.422.422 0 0 1 .064-.353l.656-.904c.148-.204.454-.186.554.045.54 1.25.576 2.767.434 4.15-.145 1.4-.484 2.765-.782 3.77-.15.505-.291.924-.395 1.219l-.033.089a.4.4 0 0 1-.522.233l-.364-.144-.38-.15a.4.4 0 0 1-.229-.51l.02-.052c.096-.273.228-.666.369-1.14.283-.954.594-2.214.724-3.48.105-1.02.086-1.982-.116-2.773Z" fill="#000"/></svg>