<svg width="24" height="24" fill="none" xmlns="http://www.w3.org/2000/svg"><path fill-rule="evenodd" clip-rule="evenodd" d="M7.146 7.5H5a2 2 0 0 0-2 2v1.3a2 2 0 0 0 2 2V19a2 2 0 0 0 2 2h10a2 2 0 0 0 2-2v-6.2a2 2 0 0 0 2-2V9.5a2 2 0 0 0-2-2h-2.146A3 3 0 0 0 12 4.06 3 3 0 0 0 7.146 7.5Zm4.054 0H9.796A1.4 1.4 0 1 1 11.2 6.1v1.4Zm3.01 0H12.8V6.1a1.4 1.4 0 1 1 1.41 1.4ZM5 9.1a.4.4 0 0 0-.4.4v1.3c0 .221.18.4.4.4h6.2V9.1H5Zm7.8 2.1V9.1H19c.22 0 .4.18.4.4v1.3a.4.4 0 0 1-.4.4h-6.2Zm-1.6 1.7H6.6V19c0 .221.18.4.4.4h4.2v-6.5Zm1.6 6.5v-6.5h4.6V19a.4.4 0 0 1-.4.4h-4.2Z" fill="#000"/></svg>