<svg width="24" height="24" fill="none" xmlns="http://www.w3.org/2000/svg"><path fill-rule="evenodd" clip-rule="evenodd" d="M6.82 4.42C8.566 3.05 10.636 2.7 12 2.7v1.6c-1.137 0-2.816.3-4.194 1.38-1.23.965-2.315 2.626-2.483 5.52H8.18c.221 0 .4.18.4.4v5.8a.4.4 0 0 1-.4.4h-.44c-.53 0-1.468 0-2.286-.299-.435-.159-.884-.418-1.224-.85-.348-.44-.53-.996-.53-1.651v-3c0-3.807 1.333-6.18 3.118-7.58ZM5.3 12.8V15c0 .345.09.539.187.66.104.132.269.248.518.339.294.107.634.158.976.18V12.8h-1.68ZM17.181 4.42c-1.747-1.37-3.818-1.72-5.18-1.72v1.6c1.136 0 2.816.3 4.193 1.38 1.231.965 2.315 2.626 2.483 5.52H15.82a.4.4 0 0 0-.4.4v5.8c0 .22.179.4.4.4h.44c.53 0 1.469 0 2.287-.299.434-.159.884-.418 1.224-.85.348-.44.53-.996.53-1.651v-3c0-3.807-1.334-6.18-3.119-7.58Zm1.52 8.38V15c0 .345-.091.539-.187.66-.104.132-.27.248-.518.339a3.598 3.598 0 0 1-.977.18V12.8H18.7Z" fill="#000"/><path d="M5.582 17.545c.122.772.384 1.52.803 2.149.622.934 1.605 1.606 2.915 1.606h2.852c.232 0 .347 0 .435-.047a.4.4 0 0 0 .167-.166c.046-.088.046-.204.046-.435v-.304c0-.232 0-.348-.047-.435a.4.4 0 0 0-.166-.166c-.088-.047-.204-.047-.435-.047H9.3c-.69 0-1.207-.328-1.584-.894a3.504 3.504 0 0 1-.446-1.01c-.49-.014-1.112-.063-1.688-.25Z" fill="#000"/></svg>