<svg width="24" height="24" fill="none" xmlns="http://www.w3.org/2000/svg"><path fill-rule="evenodd" clip-rule="evenodd" d="M4.6 7v10c0 .22.18.4.4.4h14a.4.4 0 0 0 .4-.4V7a.4.4 0 0 0-.4-.4H5a.4.4 0 0 0-.4.4ZM3 17V7a2 2 0 0 1 2-2h14a2 2 0 0 1 2 2v10a2 2 0 0 1-2 2H5a2 2 0 0 1-2-2Z" fill="#000"/><path fill-rule="evenodd" clip-rule="evenodd" d="M18 10.9a.4.4 0 0 1-.4.4h-3.7a.4.4 0 0 1-.4-.4v-.8c0-.22.18-.4.4-.4h3.7c.22 0 .4.18.4.4v.8ZM16.5 13.9a.4.4 0 0 1-.4.4h-2.2a.4.4 0 0 1-.4-.4v-.8c0-.22.18-.4.4-.4h2.2c.22 0 .4.18.4.4v.8Z" fill="#000"/><path fill-rule="evenodd" clip-rule="evenodd" d="M18 10.9a.4.4 0 0 1-.4.4h-3.7a.4.4 0 0 1-.4-.4v-.8c0-.22.18-.4.4-.4h3.7c.22 0 .4.18.4.4v.8ZM16.5 13.9a.4.4 0 0 1-.4.4h-2.2a.4.4 0 0 1-.4-.4v-.8c0-.22.18-.4.4-.4h2.2c.22 0 .4.18.4.4v.8ZM9 8.2a2.8 2.8 0 0 0-2.074 4.68 2.893 2.893 0 0 0-.701.73c-.331.498-.525 1.125-.525 1.89h1.6c0-.485.119-.796.256-1.002.14-.21.334-.361.552-.47.22-.11.45-.17.633-.2.128-.008.412-.02.518 0 .182.03.412.09.633.2.218.109.411.26.552.47.137.206.256.517.256 1.002h1.6c0-.765-.194-1.392-.525-1.89a2.892 2.892 0 0 0-.7-.73A2.8 2.8 0 0 0 9 8.2ZM7.8 11a1.2 1.2 0 1 1 2.4 0 1.2 1.2 0 0 1-2.4 0Z" fill="#000"/></svg>