<svg width="24" height="24" fill="none" xmlns="http://www.w3.org/2000/svg"><path fill-rule="evenodd" clip-rule="evenodd" d="M12.5 20.357a7.857 7.857 0 1 0 0-15.714 7.857 7.857 0 0 0 0 15.714Zm0 1.643a9.5 9.5 0 1 0 0-19 9.5 9.5 0 0 0 0 19Z" fill="#261E2F"/><path d="M14.77 8.506c0-.63-.508-1.141-1.134-1.141-.626 0-1.134.51-1.134 1.141 0 .63.508 1.141 1.134 1.141.627 0 1.134-.51 1.134-1.141ZM14.463 17.16l.173-.07.149-.612c-.505.24-1.614.477-1.614-.483 0-.25.107-.765.176-1.007l.302-1.071c.323-1.142.336-1.188.366-1.509.02-.218.03-.37.03-.456 0-.92-.71-1.409-1.679-1.409-.644 0-1.4.3-1.997.545l-.149.612c.414-.155 1.125-.34 1.43-.047.306.293.088 1.129-.02 1.538l-.557 1.987c-.186.776-.286 1.534.307 2.059.3.265.72.398 1.261.398.624 0 .927-.12 1.822-.476Z" fill="#261E2F"/></svg>