<svg width="24" height="24" fill="none" xmlns="http://www.w3.org/2000/svg"><path fill-rule="evenodd" clip-rule="evenodd" d="M9.417 6.497c-.861 1.507-1.413 3.628-1.413 6.003s.552 4.496 1.413 6.003c.87 1.524 1.982 2.31 3.083 2.31 1.1 0 2.213-.786 3.083-2.31.861-1.507 1.413-3.628 1.413-6.003s-.552-4.496-1.413-6.003c-.87-1.524-1.982-2.31-3.083-2.31-1.1 0-2.213.786-3.083 2.31Zm-1.031-.59C9.357 4.208 10.79 3 12.5 3s3.143 1.208 4.114 2.908c.982 1.716 1.57 4.048 1.57 6.592 0 2.544-.588 4.876-1.57 6.592C15.643 20.792 14.21 22 12.5 22s-3.143-1.208-4.114-2.908c-.981-1.716-1.57-4.048-1.57-6.592 0-2.544.589-4.876 1.57-6.592Z" fill="#000"/><path fill-rule="evenodd" clip-rule="evenodd" d="M3 12.5c0-.328.266-.594.594-.594h17.812a.594.594 0 1 1 0 1.188H3.594A.594.594 0 0 1 3 12.5Z" fill="#000"/><path fill-rule="evenodd" clip-rule="evenodd" d="M12.5 3c.328 0 .594.266.594.594v17.812a.594.594 0 1 1-1.188 0V3.594c0-.328.266-.594.594-.594Z" fill="#000"/><path fill-rule="evenodd" clip-rule="evenodd" d="M12.5 4.188a8.312 8.312 0 1 0 0 16.624 8.312 8.312 0 0 0 0-16.625ZM3 12.5a9.5 9.5 0 1 1 19 0 9.5 9.5 0 0 1-19 0Z" fill="#000"/></svg>