<svg width="24" height="24" fill="none" xmlns="http://www.w3.org/2000/svg"><path fill-rule="evenodd" clip-rule="evenodd" d="M12.424 5.719a4 4 0 0 1 5.657 5.657l-2.546 2.545a.2.2 0 0 1-.283 0l-.848-.848a.2.2 0 0 1 0-.283l2.546-2.546a2.4 2.4 0 1 0-3.395-3.394L11.01 9.396a.2.2 0 0 1-.283 0l-.849-.849a.2.2 0 0 1 0-.283l2.546-2.545ZM11.575 17.881a4 4 0 0 1-5.656-5.657L8.464 9.68a.2.2 0 0 1 .283 0l.849.848a.2.2 0 0 1 0 .283L7.05 13.356a2.4 2.4 0 0 0 3.394 3.394l2.546-2.546a.2.2 0 0 1 .283 0l.848.849a.2.2 0 0 1 0 .282l-2.546 2.546Z" fill="#000"/><path d="M12.565 10.103a.2.2 0 0 1 .283 0l.849.848a.2.2 0 0 1 0 .283L11.15 13.78a.2.2 0 0 1-.283 0l-.848-.849a.2.2 0 0 1 0-.282l2.545-2.546Z" fill="#000"/></svg>