<svg width="24" height="24" fill="none" xmlns="http://www.w3.org/2000/svg"><path fill-rule="evenodd" clip-rule="evenodd" d="M4.6 7v10c0 .22.18.4.4.4h14a.4.4 0 0 0 .4-.4V7a.4.4 0 0 0-.4-.4H5a.4.4 0 0 0-.4.4ZM3 17V7a2 2 0 0 1 2-2h14a2 2 0 0 1 2 2v10a2 2 0 0 1-2 2H5a2 2 0 0 1-2-2Z" fill="#000"/><path fill-rule="evenodd" clip-rule="evenodd" d="M5.373 9.543a.4.4 0 0 1-.1-.556l.455-.658a.4.4 0 0 1 .556-.101L12 12.185l5.716-3.957a.4.4 0 0 1 .556.1l.456.659a.4.4 0 0 1-.102.556l-6.398 4.43a.4.4 0 0 1-.456 0l-6.399-4.43Z" fill="#000"/></svg>