<svg width="24" height="24" fill="none" xmlns="http://www.w3.org/2000/svg"><path fill-rule="evenodd" clip-rule="evenodd" d="m5.742 4.224 12.298-.002c.99 0 1.35.103 1.712.297.362.194.647.478.84.84.194.362.297.721.297 1.712v9.858c0 .99-.103 1.35-.297 1.712a2.02 2.02 0 0 1-.84.84c-.362.194-.721.297-1.712.297H5.96c-.99 0-1.35-.103-1.712-.297a2.02 2.02 0 0 1-.84-.84c-.194-.362-.297-.721-.297-1.712V7.071c0-.99.103-1.35.297-1.712a2.02 2.02 0 0 1 .84-.84c.334-.179.666-.28 1.494-.295Zm12.475 1.388H5.783l-.314.009c-.309.016-.437.054-.566.123a.631.631 0 0 0-.27.27c-.09.166-.126.33-.132.88v10.212l.009.313c.016.31.053.438.123.567.064.12.15.206.27.27.15.08.298.118.726.13l.33.003H18.04c.694 0 .874-.035 1.057-.133a.631.631 0 0 0 .27-.27c.08-.15.118-.298.13-.727l.003-.33V7.071c0-.693-.035-.874-.133-1.057a.631.631 0 0 0-.27-.27c-.166-.09-.33-.126-.88-.132Zm-3.952 7.207a.825.825 0 0 0 0-1.415l-3.127-1.877a.825.825 0 0 0-1.25.708v3.752c0 .642.7 1.038 1.25.708l3.127-1.877Z" fill="#000"/><mask id="a" style="mask-type:alpha" maskUnits="userSpaceOnUse" x="3" y="4" width="18" height="16"><path fill-rule="evenodd" clip-rule="evenodd" d="m5.742 4.224 12.298-.002c.99 0 1.35.103 1.712.297.362.194.647.478.84.84.194.362.297.721.297 1.712v9.858c0 .99-.103 1.35-.297 1.712a2.02 2.02 0 0 1-.84.84c-.362.194-.721.297-1.712.297H5.96c-.99 0-1.35-.103-1.712-.297a2.02 2.02 0 0 1-.84-.84c-.194-.362-.297-.721-.297-1.712V7.071c0-.99.103-1.35.297-1.712a2.02 2.02 0 0 1 .84-.84c.334-.179.666-.28 1.494-.295Zm12.475 1.388H5.783l-.314.009c-.309.016-.437.054-.566.123a.631.631 0 0 0-.27.27c-.09.166-.126.33-.132.88v10.212l.009.313c.016.31.053.438.123.567.064.12.15.206.27.27.15.08.298.118.726.13l.33.003H18.04c.694 0 .874-.035 1.057-.133a.631.631 0 0 0 .27-.27c.08-.15.118-.298.13-.727l.003-.33V7.071c0-.693-.035-.874-.133-1.057a.631.631 0 0 0-.27-.27c-.166-.09-.33-.126-.88-.132Zm-3.952 7.207a.825.825 0 0 0 0-1.415l-3.127-1.877a.825.825 0 0 0-1.25.708v3.752c0 .642.7 1.038 1.25.708l3.127-1.877Z" fill="#fff"/></mask><g mask="url(#a)"><rect x="2" y="2" width="20" height="20" rx="1.375" fill="#000"/></g></svg>