<svg width="24" height="24" fill="none" xmlns="http://www.w3.org/2000/svg"><path fill-rule="evenodd" clip-rule="evenodd" d="M12 11.111A3.556 3.556 0 1 0 12 4a3.556 3.556 0 0 0 0 7.111Zm-3.068 3.351c-3.434.567-5.376 2.01-6.286 2.902-.46.452-.646 1.051-.646 1.691v1.523c0 .498 0 .747.109.937a.952.952 0 0 0 .437.388C2.76 22 3.04 22 3.6 22h16.8c.56 0 .84 0 1.054-.097a.952.952 0 0 0 .437-.388c.109-.19.109-.44.109-.937v-1.523c0-.645-.17-1.224-.646-1.691-.91-.892-2.852-2.335-6.286-2.902l-.193-.03c-.864-.133-1.82-.21-2.875-.21a18.993 18.993 0 0 0-3.068.24Zm5.803-2.07A5.556 5.556 0 1 0 9.264 2.72a5.556 5.556 0 0 0 5.472 9.673ZM12 16.222c-.957 0-1.812.07-2.572.186-1.942.297-3.945.994-5.382 2.384-.055.054-.046.197-.046.263V20h16v-.945c0-.083.017-.2-.047-.264-.66-.647-2.284-1.909-5.38-2.383A16.987 16.987 0 0 0 12 16.222Z" fill="#261E2F"/></svg>