<svg width="24" height="24" fill="none" xmlns="http://www.w3.org/2000/svg"><path d="M21.94 18.368c.06.24.06.39.06.687v1.523c0 .498 0 .747-.109.937a.952.952 0 0 1-.437.388C21.24 22 20.96 22 20.4 22H3.6c-.56 0-.84 0-1.054-.097l.39-.863 19.003-2.672Zm0 0a2.944 2.944 0 0 0-.265-.608m.264.608-.264-.608m0 0c-.136-.215-.198-.275-.321-.396l.321.396Zm-5.12-10.204a4.556 4.556 0 1 1-9.11 0 4.556 4.556 0 0 1 9.11 0ZM9.277 15.42A17.99 17.99 0 0 1 12 15.222c1.006 0 1.911.074 2.724.198 3.325.509 5.136 1.88 5.93 2.658.066.065.078.078.09.092.01.011.033.04.088.127l-.002-.002.023.042a2.362 2.362 0 0 1 .103.239l.015.042c.026.104.029.144.029.437v1.523c0 .127 0 .226-.002.312l-.002.1h-.012c-.122.01-.29.01-.584.01H3.6c-.295 0-.462 0-.584-.01h-.012A18.624 18.624 0 0 1 3 20.578v-1.523c0-.293.003-.334.03-.437a2.436 2.436 0 0 1 .118-.28c.014-.03.022-.043.022-.043l-.002.002c.055-.086.078-.116.088-.127.012-.014.024-.027.09-.093.794-.778 2.605-2.148 5.93-2.657Z" stroke="#000" stroke-width="2"/></svg>