<svg width="24" height="24" fill="none" xmlns="http://www.w3.org/2000/svg"><path d="M8.1 7.6a.5.5 0 0 0-.5.5v.8a.5.5 0 0 0 .5.5h.8a.5.5 0 0 0 .5-.5v-.8a.5.5 0 0 0-.5-.5h-.8Z" fill="#000"/><path fill-rule="evenodd" clip-rule="evenodd" d="M5.4 4A1.4 1.4 0 0 0 4 5.4v6.2A1.4 1.4 0 0 0 5.4 13h6.2a1.4 1.4 0 0 0 1.4-1.4V5.4A1.4 1.4 0 0 0 11.6 4H5.4Zm6.2 1.2H5.4a.2.2 0 0 0-.2.2v6.2c0 .11.09.2.2.2h6.2a.2.2 0 0 0 .2-.2V5.4a.2.2 0 0 0-.2-.2ZM5.4 14A1.4 1.4 0 0 0 4 15.4v3.2A1.4 1.4 0 0 0 5.4 20h3.2a1.4 1.4 0 0 0 1.4-1.4v-3.2A1.4 1.4 0 0 0 8.6 14H5.4Zm3.2 1.2H5.4a.2.2 0 0 0-.2.2v3.2c0 .11.09.2.2.2h3.2a.2.2 0 0 0 .2-.2v-3.2a.2.2 0 0 0-.2-.2ZM14 15.4a1.4 1.4 0 0 1 1.4-1.4h3.2a1.4 1.4 0 0 1 1.4 1.4v3.2a1.4 1.4 0 0 1-1.4 1.4h-3.2a1.4 1.4 0 0 1-1.4-1.4v-3.2Zm1.4-.2h3.2c.11 0 .2.09.2.2v3.2a.2.2 0 0 1-.2.2h-3.2a.2.2 0 0 1-.2-.2v-3.2c0-.11.09-.2.2-.2ZM15.4 4A1.4 1.4 0 0 0 14 5.4v3.2a1.4 1.4 0 0 0 1.4 1.4h3.2A1.4 1.4 0 0 0 20 8.6V5.4A1.4 1.4 0 0 0 18.6 4h-3.2Zm3.2 1.2h-3.2a.2.2 0 0 0-.2.2v3.2c0 .11.09.2.2.2h3.2a.2.2 0 0 0 .2-.2V5.4a.2.2 0 0 0-.2-.2Z" fill="#000"/><path d="M14.8 11.1a.5.5 0 0 0-.5.5v.8a.5.5 0 0 0 .5.5h.8a.5.5 0 0 0 .5-.5v-.8a.5.5 0 0 0-.5-.5h-.8ZM11.1 14.8a.5.5 0 0 1 .5-.5h.8a.5.5 0 0 1 .5.5v.8a.5.5 0 0 1-.5.5h-.8a.5.5 0 0 1-.5-.5v-.8ZM11.1 18.3a.5.5 0 0 1 .5-.5h.8a.5.5 0 0 1 .5.5v.8a.5.5 0 0 1-.5.5h-.8a.5.5 0 0 1-.5-.5v-.8ZM18.2 11.1a.5.5 0 0 0-.5.5v.8a.5.5 0 0 0 .5.5h.8a.5.5 0 0 0 .5-.5v-.8a.5.5 0 0 0-.5-.5h-.8Z" fill="#000"/></svg>