<svg width="24" height="24" fill="none" xmlns="http://www.w3.org/2000/svg"><path fill-rule="evenodd" clip-rule="evenodd" d="M22 12c0 5.523-4.477 10-10 10S2 17.523 2 12 6.477 2 12 2s10 4.477 10 10Zm-9.094-5.13c1.348.248 2.625 1.333 2.625 2.753 0 1.172-.646 1.89-1.297 2.342a7.645 7.645 0 0 1-.907.52l-.026.014c-.18.092-.322.163-.436.228v1.435h-1.73v-1.597c0-.38.149-.86.588-1.163.237-.163.522-.307.756-.425l.064-.033a6 6 0 0 0 .704-.4c.375-.26.554-.512.554-.921 0-.321-.39-.902-1.207-1.052-.684-.126-1.68.099-2.518 1.497l-1.483-.89c1.16-1.935 2.831-2.58 4.313-2.308Zm-.041 8.62v1.236a.24.24 0 0 1-.07.178.24.24 0 0 1-.177.069h-1.236a.24.24 0 0 1-.177-.07.24.24 0 0 1-.07-.177V15.49a.24.24 0 0 1 .07-.177.24.24 0 0 1 .177-.07h1.236a.24.24 0 0 1 .178.07.24.24 0 0 1 .069.177Z" fill="#000"/></svg>