<svg width="24" height="24" fill="none" xmlns="http://www.w3.org/2000/svg"><path fill-rule="evenodd" clip-rule="evenodd" d="M12 20.27a8.27 8.27 0 1 0 0-16.54 8.27 8.27 0 0 0 0 16.54ZM12 22c5.523 0 10-4.477 10-10S17.523 2 12 2 2 6.477 2 12s4.477 10 10 10Z" fill="#261E2F"/><path d="M12.865 15.49v1.236a.24.24 0 0 1-.07.178.24.24 0 0 1-.177.069h-1.236a.24.24 0 0 1-.177-.07.24.24 0 0 1-.07-.177V15.49a.24.24 0 0 1 .07-.177.24.24 0 0 1 .177-.07h1.236a.24.24 0 0 1 .177.07.24.24 0 0 1 .07.177Z" fill="#261E2F"/><path fill-rule="evenodd" clip-rule="evenodd" d="M12.906 6.87c1.348.248 2.625 1.333 2.625 2.753 0 1.172-.646 1.89-1.297 2.342a7.638 7.638 0 0 1-.907.52l-.027.014c-.18.092-.32.163-.435.228v1.435h-1.73v-1.597c0-.38.148-.86.588-1.163a6.68 6.68 0 0 1 .755-.425l.065-.033c.27-.138.502-.26.704-.4.374-.26.554-.512.554-.921 0-.321-.39-.902-1.207-1.052-.684-.126-1.68.099-2.518 1.497l-1.484-.89c1.161-1.935 2.832-2.58 4.314-2.308Z" fill="#261E2F"/></svg>