<svg width="24" height="24" fill="none" xmlns="http://www.w3.org/2000/svg"><path fill-rule="evenodd" clip-rule="evenodd" d="M12.707 5.914a3.803 3.803 0 1 1 5.379 5.378l-1.558 1.559a.2.2 0 0 1-.283 0l-.85-.85a.2.2 0 0 1 0-.283l1.559-1.558a2.202 2.202 0 1 0-3.114-3.114L12.28 8.605a.2.2 0 0 1-.283 0l-.849-.85a.2.2 0 0 1 0-.283l1.559-1.558Zm-1.415 12.172a3.803 3.803 0 1 1-5.378-5.378l1.558-1.559a.2.2 0 0 1 .283 0l.85.85a.2.2 0 0 1 0 .283L7.045 13.84a2.202 2.202 0 0 0 3.114 3.114l1.558-1.559a.2.2 0 0 1 .283 0l.85.85a.2.2 0 0 1 0 .283l-1.559 1.558Z" fill="#000"/><path d="M7.474 6.626a.2.2 0 0 1 .283 0l9.617 9.617a.2.2 0 0 1 0 .283l-.849.848a.2.2 0 0 1-.283 0L6.626 7.757a.2.2 0 0 1 0-.282l.848-.849Z" fill="#000"/></svg>