<svg width="24" height="24" fill="none" xmlns="http://www.w3.org/2000/svg"><path fill-rule="evenodd" clip-rule="evenodd" d="M21.955 2.3a.3.3 0 0 0-.326-.299l-5.107.455a.3.3 0 0 0-.272.324l.13 1.528a.3.3 0 0 0 .325.274l1.972-.175c-3.338 4.028-9.084 7.333-15.418 8.275a.303.303 0 0 0-.256.337L3.2 14.54a.298.298 0 0 0 .338.257c6.612-.974 12.653-4.225 16.338-8.555v1.5a.3.3 0 0 0 .3.3h1.48a.3.3 0 0 0 .3-.3V2.3Zm-2.173 9.22a.3.3 0 0 1 .3-.3H21.7a.3.3 0 0 1 .3.3V21.7a.3.3 0 0 1-.3.3h-1.618a.3.3 0 0 1-.3-.3V11.52Zm-5.245 2.61a.3.3 0 0 0-.3.3v7.265a.3.3 0 0 0 .3.3h1.618a.3.3 0 0 0 .3-.3V14.43a.3.3 0 0 0-.3-.3h-1.618Zm-5.844 2.698a.3.3 0 0 1 .3-.3h1.618a.3.3 0 0 1 .3.3v4.869a.3.3 0 0 1-.3.3H8.993a.3.3 0 0 1-.3-.3v-4.869Zm-5.545 1.547a.3.3 0 0 1 .3-.3h1.618a.3.3 0 0 1 .3.3v3.318a.3.3 0 0 1-.3.3H3.448a.3.3 0 0 1-.3-.3v-3.318Z" fill="#261E2F"/></svg>