<svg width="24" height="24" fill="none" xmlns="http://www.w3.org/2000/svg"><path fill-rule="evenodd" clip-rule="evenodd" d="M3.723 11.407 6.968 7.7a.3.3 0 0 1 .423-.028l.752.658a.3.3 0 0 1 .029.424L5.33 12l2.842 3.247a.3.3 0 0 1-.029.424l-.752.658a.3.3 0 0 1-.423-.028l-3.245-3.708a.9.9 0 0 1 0-1.186ZM20.277 11.407 17.032 7.7a.3.3 0 0 0-.423-.028l-.752.658a.3.3 0 0 0-.029.424L18.67 12l-2.842 3.247a.3.3 0 0 0 .029.424l.752.658a.3.3 0 0 0 .423-.028l3.245-3.708a.9.9 0 0 0 0-1.186ZM9.77 18.863a.3.3 0 0 1-.207-.371l3.835-13.423a.3.3 0 0 1 .371-.206l.962.274a.3.3 0 0 1 .206.371l-3.835 13.423a.3.3 0 0 1-.371.206l-.962-.274Z" fill="#000"/></svg>