<svg width="24" height="24" fill="none" xmlns="http://www.w3.org/2000/svg"><path fill-rule="evenodd" clip-rule="evenodd" d="M3.86 5.463c0-.314.25-.568.559-.568h10.559v1.09H3.86v-.522ZM16.84 4.232v1.752h1.349c1.335 0 2.418 1.103 2.418 2.463v2.132h.464c.514 0 .93.424.93.947v3.79a.939.939 0 0 1-.93.947h-.464v2.274c0 1.36-1.083 2.463-2.419 2.463H4.42C3.083 21 2 19.897 2 18.537V5.463C2 4.103 3.083 3 4.419 3h11.21c.668 0 1.21.551 1.21 1.232Zm1.907 12.031h-.467c-1.542 0-2.791-1.272-2.791-2.842s1.25-2.842 2.79-2.842h.468V8.447a.563.563 0 0 0-.558-.568H3.86v10.658c0 .314.25.568.558.568h13.768a.563.563 0 0 0 .559-.568v-2.274Zm-.467-3.79h1.86v1.895h-1.86a.939.939 0 0 1-.93-.947c0-.523.416-.947.93-.947Z" fill="#261E2F"/></svg>