<svg width="24" height="24" fill="none" xmlns="http://www.w3.org/2000/svg"><path fill-rule="evenodd" clip-rule="evenodd" d="M16.25 6.5a.75.75 0 0 0-.75.75v13.5a.75.75 0 0 0 1.5 0V7.25a.75.75 0 0 0-.75-.75ZM11.75 11a.75.75 0 0 0-.75.75v9a.75.75 0 0 0 1.5 0v-9a.75.75 0 0 0-.75-.75ZM2.75 11a.75.75 0 0 0-.75.75v9a.75.75 0 0 0 1.5 0v-9a.75.75 0 0 0-.75-.75ZM7.25 6.5a.75.75 0 0 0-.75.75v13.5a.75.75 0 0 0 1.5 0V7.25a.75.75 0 0 0-.75-.75ZM20.75 2a.75.75 0 0 0-.75.75v18a.75.75 0 0 0 1.5 0v-18a.75.75 0 0 0-.75-.75Z" fill="#000"/></svg>