<svg width="24" height="24" fill="none" xmlns="http://www.w3.org/2000/svg"><path fill-rule="evenodd" clip-rule="evenodd" d="M4.8 7c.006.022.045.138.304.33.305.225.798.462 1.478.674C7.933 8.426 9.849 8.7 12 8.7c2.151 0 4.067-.274 5.418-.696.68-.212 1.173-.449 1.478-.674.26-.192.298-.308.303-.33-.005-.022-.043-.138-.303-.33-.305-.225-.797-.462-1.478-.674C16.068 5.574 14.151 5.3 12 5.3c-2.151 0-4.067.274-5.418.696-.68.212-1.173.449-1.478.674-.26.192-.298.308-.303.33Zm1.305-2.531C7.649 3.986 9.733 3.7 12 3.7c2.267 0 4.351.286 5.896.769.767.24 1.446.542 1.95.914.49.362.954.899.954 1.617s-.464 1.255-.953 1.617c-.505.372-1.184.675-1.951.914-1.545.483-3.629.769-5.896.769s-4.351-.286-5.895-.769c-.768-.24-1.447-.542-1.952-.914C3.664 8.255 3.2 7.718 3.2 7s.464-1.255.953-1.617c.505-.372 1.184-.675 1.952-.914ZM6.375 12.847c1.265.382 3.03.622 5.025.65.221.003.4.182.4.403v.8c0 .221-.179.4-.4.397-2.104-.028-4.034-.28-5.488-.719-.769-.232-1.454-.531-1.964-.915-.41-.31-.778-.73-.903-1.266-.05-.215.134-.397.355-.397h1c.11 0 .216.091.286.177.046.057.116.126.224.207.3.226.785.458 1.465.663ZM6.575 17.547c1.265.382 3.03.622 5.025.65.221.003.4.182.4.403v.8c0 .22-.179.4-.4.397-2.103-.028-4.033-.28-5.488-.719-.768-.232-1.454-.531-1.964-.915-.41-.31-.778-.73-.902-1.266-.05-.216.133-.397.354-.397h1c.11 0 .217.091.286.177.046.057.116.126.224.207.3.226.786.457 1.465.663ZM16.2 17.292V12.9c0-.22.18-.4.4-.4h.8c.221 0 .4.18.4.4v4.392l1.38-1.15a.4.4 0 0 1 .564.05l.512.615a.4.4 0 0 1-.051.564l-2.82 2.35a.6.6 0 0 1-.769 0l-2.82-2.35a.4.4 0 0 1-.052-.564l.512-.614a.4.4 0 0 1 .563-.052l1.381 1.151Z" fill="#000"/></svg>