<svg width="24" height="24" fill="none" xmlns="http://www.w3.org/2000/svg"><path fill-rule="evenodd" clip-rule="evenodd" d="M11.227 14.193c-.58.077-1.015.234-1.524.416l-.118.042a8.25 8.25 0 0 1-1.327.379V18c1.92.892 3.62 1.313 5.115 1.313 1.137 0 2.562-.483 3.919-1.193 1.133-.593 2.134-1.3 2.787-1.896a1.392 1.392 0 0 0-.343-.318c-.32-.208-.829-.352-1.57.05-1.643 1.063-3.206 1.658-4.666 1.664l-.007-1.6c.639-.003 1.362-.166 2.176-.52-1.123-.929-2.478-1.51-4.442-1.307Zm5.943.5c-1.452-1.364-3.326-2.383-6.12-2.09l-.021.002c-.761.1-1.349.311-1.852.492l-.13.047c-.53.19-.998.34-1.638.38a.8.8 0 0 0-.751.798v4.183a.8.8 0 0 0 .446.717c2.246 1.108 4.34 1.691 6.269 1.691 1.516 0 3.213-.618 4.66-1.376 1.457-.762 2.78-1.729 3.546-2.544a.801.801 0 0 0 .206-.415 1.34 1.34 0 0 0-.057-.624 2.205 2.205 0 0 0-.238-.501 2.958 2.958 0 0 0-.882-.888c-.81-.527-1.96-.706-3.24.003a13.367 13.367 0 0 1-.199.125Z" fill="#000"/><path fill-rule="evenodd" clip-rule="evenodd" d="M3.2 13.7a1 1 0 0 1 1-1h3.058a1 1 0 0 1 1 1v5.46a1 1 0 0 1-1 1H4.2a1 1 0 0 1-1-1V13.7Zm1.6.6v4.26h1.858V14.3H4.8ZM17.9 8.25a2.15 2.15 0 1 0-4.3 0 2.15 2.15 0 0 0 4.3 0Zm1.6 0a3.75 3.75 0 1 0-7.5 0 3.75 3.75 0 0 0 7.5 0Z" fill="#000"/><path fill-rule="evenodd" clip-rule="evenodd" d="M14.017 4.924A2.15 2.15 0 1 0 12 8.286c.005.578.14 1.124.38 1.612a3.73 3.73 0 0 0 1.636-4.974Z" fill="#000"/></svg>