<svg width="24" height="24" fill="none" xmlns="http://www.w3.org/2000/svg"><path fill-rule="evenodd" clip-rule="evenodd" d="M11.215 9.385A1.6 1.6 0 0 1 9.619 11.1H7a.4.4 0 0 0-.4.4v2.658l-.988 4.94A.4.4 0 0 0 6 19.4h12a.4.4 0 0 0 .388-.302l-.988-4.94V11.5a.4.4 0 0 0-.4-.4h-2.619a1.6 1.6 0 0 1-1.596-1.715c.09-1.237.165-2.653.165-3.885 0-.317-.117-.509-.265-.635a1.087 1.087 0 0 0-.69-.233 1.052 1.052 0 0 0-.681.221c-.143.12-.264.313-.264.647 0 1.232.076 2.648.165 3.885ZM20 19a2 2 0 0 1-2 2H6a2 2 0 0 1-2-2l1-5v-2.5a2 2 0 0 1 2-2h2.082c.29 0 .52-.246.5-.536A74.559 74.559 0 0 1 9.52 7.9a47.609 47.609 0 0 1-.069-2.4c0-.79.317-1.435.83-1.869.496-.418 1.128-.603 1.725-.6.598.005 1.225.198 1.716.615.508.431.83 1.07.83 1.854 0 .766-.028 1.592-.07 2.4-.019.36-.04.718-.063 1.064-.019.29.21.536.5.536H17a2 2 0 0 1 2 2V14l1 5Z" fill="#000"/><path fill-rule="evenodd" clip-rule="evenodd" d="M18 14.3H6v-1.6h12v1.6ZM11.5 20a.3.3 0 0 1-.3-.3v-2.4a.3.3 0 0 1 .3-.3h1a.3.3 0 0 1 .3.3v2.4a.3.3 0 0 1-.3.3h-1ZM14.7 20a.3.3 0 0 1-.3-.3v-2.4a.3.3 0 0 1 .3-.3h1a.3.3 0 0 1 .3.3v2.4a.3.3 0 0 1-.3.3h-1ZM8.3 20a.3.3 0 0 1-.3-.3v-2.4a.3.3 0 0 1 .3-.3h1a.3.3 0 0 1 .3.3v2.4a.3.3 0 0 1-.3.3h-1Z" fill="#000"/></svg>