<svg width="24" height="24" fill="none" xmlns="http://www.w3.org/2000/svg"><path d="M11.837 20.5H6.5a2 2 0 0 1-2-2v-13a2 2 0 0 1 2-2h8.417a2 2 0 0 1 1.42.591l2.582 2.602a2 2 0 0 1 .581 1.409v4.735a5.528 5.528 0 0 0-1.6-1.511V8.102a.4.4 0 0 0-.116-.282L15.2 5.218a.4.4 0 0 0-.284-.118H6.5a.4.4 0 0 0-.4.4v13c0 .22.18.4.4.4h3.826a5.53 5.53 0 0 0 1.51 1.6ZM18.581 20.174l-.002.01a2.01 2.01 0 0 0 .627-.64c-.19.226-.4.437-.625.63Z" fill="#261E2F"/><path d="M11.837 11.5H8.2a.2.2 0 0 0-.2.2v1.2c0 .11.09.2.2.2h2.126a5.53 5.53 0 0 1 1.51-1.6ZM8 9.4c0 .11.09.2.2.2h7.6a.2.2 0 0 0 .2-.2V8.2a.2.2 0 0 0-.2-.2H8.2a.2.2 0 0 0-.2.2v1.2Z" fill="#261E2F"/><path fill-rule="evenodd" clip-rule="evenodd" d="M15 19.9a3.9 3.9 0 1 0 0-7.8 3.9 3.9 0 0 0 0 7.8Zm0 1.6a5.5 5.5 0 1 0 0-11 5.5 5.5 0 0 0 0 11Z" fill="#261E2F"/><path fill-rule="evenodd" clip-rule="evenodd" d="m13.869 16-1.152-1.151a.4.4 0 0 1 0-.566l.566-.566a.4.4 0 0 1 .566 0L15 14.87l1.151-1.152a.4.4 0 0 1 .566 0l.566.566a.4.4 0 0 1 0 .566L16.13 16l1.152 1.151a.4.4 0 0 1 0 .566l-.566.566a.4.4 0 0 1-.566 0L15 17.13l-1.152 1.152a.4.4 0 0 1-.565 0l-.566-.566a.4.4 0 0 1 0-.566L13.87 16Z" fill="#261E2F"/></svg>