<svg width="24" height="24" fill="none" xmlns="http://www.w3.org/2000/svg"><path fill-rule="evenodd" clip-rule="evenodd" d="M17.55 5h1.1a1.6 1.6 0 0 1 1.6 1.6v6.8a1.6 1.6 0 0 1-1.6 1.6h-1.1v1.6a.4.4 0 0 1-.4.4h-.8a.4.4 0 0 1-.4-.4V15h-1.1a1.6 1.6 0 0 1-1.6-1.6V6.6a1.6 1.6 0 0 1 1.6-1.6h1.1V3.4a.4.4 0 0 1 .4-.4h.8c.22 0 .4.18.4.4V5Zm1.1 1.6h-3.8v6.8h3.8V6.6ZM8.05 9h1.1a1.6 1.6 0 0 1 1.6 1.6v6.8a1.6 1.6 0 0 1-1.6 1.6h-1.1v1.6a.4.4 0 0 1-.4.4h-.8a.4.4 0 0 1-.4-.4V19h-1.1a1.6 1.6 0 0 1-1.6-1.6v-6.8A1.6 1.6 0 0 1 5.35 9h1.1V7.4c0-.22.179-.4.4-.4h.8c.22 0 .4.18.4.4V9Zm-2.7 1.6h3.8v6.8h-3.8v-6.8Z" fill="#261E2F"/></svg>