<svg width="24" height="24" fill="none" xmlns="http://www.w3.org/2000/svg"><path d="m17.164 6.356-1.24 1.002 3.727.68.057-3.737-1.287 1.04A9.25 9.25 0 1 0 11 21.196v-1.61a7.652 7.652 0 0 1 .999-15.236c1.99 0 3.803.76 5.164 2.006ZM13 21.197a9.19 9.19 0 0 0 3.31-1.01l-.9-1.337a7.598 7.598 0 0 1-2.41.735v1.612ZM17.967 19.068l-.9-1.337a7.688 7.688 0 0 0 1.475-1.763l1.475.649a9.297 9.297 0 0 1-2.05 2.451ZM19.347 14.137l1.476.65a9.245 9.245 0 0 0 .42-3.172l-1.6.067a7.654 7.654 0 0 1-.296 2.456Z" fill="#000"/><path fill-rule="evenodd" clip-rule="evenodd" d="M12 8.5a3.5 3.5 0 1 1 0 7 3.5 3.5 0 0 1 0-7Zm0 1.6a1.9 1.9 0 1 1 0 3.8 1.9 1.9 0 0 1 0-3.8Z" fill="#000"/></svg>