<svg width="24" height="24" fill="none" xmlns="http://www.w3.org/2000/svg"><path fill-rule="evenodd" clip-rule="evenodd" d="M14.614 10.238c-.09-1.075-1.042-1.593-2.182-1.593h-2.193c-.582 0-1.053.471-1.053 1.053v4.764c0 .582.471 1.053 1.053 1.053h2.115c1.466 0 2.597-.442 2.745-1.872.12-1.15-.416-1.671-1.28-1.889.53-.261.864-.73.795-1.516Zm-3.93.575c0 .29.236.526.527.526h.815s.815.033.83-.89c.013-.892-.83-.921-.83-.921h-.817a.524.524 0 0 0-.525.524v.76Zm.494 3.489a.527.527 0 0 1-.526-.527v-.949c0-.29.235-.526.526-.526h1.254s.944.102.944.994c0 .979-.944 1.008-.944 1.008h-1.254Z" fill="#261E2F"/><path d="M11.064 8.006c0-.221.18-.4.4-.4h.588a.4.4 0 0 1 .4.4v.756h-1.388v-.756ZM11.064 15.315h1.388v.756a.4.4 0 0 1-.4.4h-.588a.4.4 0 0 1-.4-.4v-.757Z" fill="#261E2F"/><path fill-rule="evenodd" clip-rule="evenodd" d="M12.25 4.351a7.65 7.65 0 1 1-6.397 12.201.257.257 0 0 0-.35-.06l-.905.626a.245.245 0 0 0-.06.346A9.25 9.25 0 1 0 12.25 2.75a.245.245 0 0 0-.25.246v1.1c0 .138.112.25.25.254Zm-3.738-.923a.245.245 0 0 0-.13.326l.443 1.007a.257.257 0 0 0 .331.132c.309-.124.626-.228.951-.31a.256.256 0 0 0 .19-.303l-.237-1.074a.245.245 0 0 0-.297-.187 9.199 9.199 0 0 0-1.251.409ZM5.5 5.415a.245.245 0 0 0 .005.352l.793.761c.1.096.258.092.357-.004.239-.234.493-.451.761-.652a.256.256 0 0 0 .06-.351l-.631-.902a.245.245 0 0 0-.346-.058 9.303 9.303 0 0 0-.999.854ZM3.474 8.403a.245.245 0 0 0 .14.323l1.024.4a.257.257 0 0 0 .328-.141c.132-.31.283-.607.453-.892a.257.257 0 0 0-.08-.348l-.926-.593a.245.245 0 0 0-.342.078 9.195 9.195 0 0 0-.597 1.173Zm-.623 2.226a9.371 9.371 0 0 0-.101 1.31.245.245 0 0 0 .252.245l1.1-.022a.257.257 0 0 0 .248-.255 7.773 7.773 0 0 1 .078-1 .257.257 0 0 0-.207-.29l-1.083-.191a.245.245 0 0 0-.287.203Zm.58 4.856c.052.128.2.185.327.13l1.006-.443a.257.257 0 0 0 .132-.332 7.594 7.594 0 0 1-.31-.95.257.257 0 0 0-.302-.19l-1.075.237a.245.245 0 0 0-.187.297c.107.429.244.847.41 1.251Z" fill="#261E2F"/></svg>