<svg width="24" height="24" fill="none" xmlns="http://www.w3.org/2000/svg"><path fill-rule="evenodd" clip-rule="evenodd" d="M2 15.67C2 10.293 6.4 6.3 12 6.3s10 4.018 10 9.369c0 1.365-.362 2.491-1.023 3.395-.657.899-1.567 1.52-2.566 1.947-1.965.84-4.407.988-6.411.988-2.001 0-4.445-.14-6.41-.978-1-.426-1.91-1.047-2.568-1.947C2.362 18.169 2 17.04 2 15.67ZM12 8.02c-4.628 0-8.182 3.253-8.182 7.649 0 1.073.278 1.85.7 2.427.426.583 1.042 1.025 1.818 1.356 1.586.675 3.688.827 5.664.827 1.973 0 4.076-.157 5.662-.836.777-.332 1.394-.775 1.82-1.358.422-.577.7-1.35.7-2.416 0-4.373-3.556-7.649-8.182-7.649Z" fill="#000"/><path fill-rule="evenodd" clip-rule="evenodd" d="M9.528 6.554 8.172 4.237c.756-.236 2.03-.517 3.828-.517 1.797 0 3.072.28 3.828.517L14.47 6.555c.615.13 1.207.307 1.77.528l1.56-2.668c.293-.498.131-1.19-.492-1.47C16.664 2.652 14.892 2 12 2c-2.891 0-4.664.653-5.309.944a1.031 1.031 0 0 0-.492 1.471l1.56 2.665c.563-.22 1.155-.397 1.77-.526ZM12 15.118c.565 0 1.023-.433 1.023-.968 0-.534-.458-.967-1.023-.967s-1.023.433-1.023.967c0 .535.458.968 1.023.968Zm0 1.72c1.569 0 2.84-1.203 2.84-2.688 0-1.484-1.271-2.688-2.84-2.688s-2.84 1.204-2.84 2.688c0 1.485 1.271 2.689 2.84 2.689Z" fill="#000"/></svg>