<svg width="24" height="24" fill="none" xmlns="http://www.w3.org/2000/svg"><path d="M15.73 14.006c.087.012.17.04.246.085v-.003a.667.667 0 0 1 .241.912 3.347 3.347 0 0 1-2.882 1.665h-2.667A3.338 3.338 0 0 1 7.401 14h-.733a.666.666 0 1 1 0-1.334h.667v-1.333h-.667a.667.667 0 1 1 0-1.333h.733a3.34 3.34 0 0 1 3.267-2.667h2.667a3.35 3.35 0 0 1 2.882 1.665.666.666 0 1 1-1.153.671 2.014 2.014 0 0 0-1.73-1.001h-2.667c-.87 0-1.611.557-1.886 1.333H12a.667.667 0 0 1 0 1.333H8.667v1.334H12A.666.666 0 1 1 12 14H8.781a2.003 2.003 0 0 0 1.886 1.333h2.666a2.014 2.014 0 0 0 1.731-1.001.666.666 0 0 1 .666-.326Z" fill="#000"/><path fill-rule="evenodd" clip-rule="evenodd" d="M4.929 4.929A10 10 0 1 1 19.07 19.07 10 10 0 0 1 4.93 4.93Zm1.414 12.728A8 8 0 1 0 17.657 6.342 8 8 0 0 0 6.343 17.657Z" fill="#000"/></svg>