<svg width="24" height="24" fill="none" xmlns="http://www.w3.org/2000/svg"><path fill-rule="evenodd" clip-rule="evenodd" d="M4 7.87a3.87 3.87 0 1 1 7.738 0A3.87 3.87 0 0 1 4 7.87Zm3.87-2.328a2.327 2.327 0 1 0 0 4.654 2.327 2.327 0 0 0 0-4.654Z" fill="#261E2F"/><path d="M19.314 10.627a.386.386 0 0 0 .686-.242V5.64a.386.386 0 0 0-.386-.386h-.77a.386.386 0 0 0-.386.386v1.596c-1.364-1.422-2.718-2.402-4.065-2.873a.367.367 0 0 0-.472.256l-.208.742a.412.412 0 0 0 .262.491c1.366.507 2.92 1.763 4.653 3.92l.686.856ZM4.343 12.947a.193.193 0 0 0-.343.12v5.294c0 .213.173.386.386.386h.77a.386.386 0 0 0 .386-.386v-1.597c1.37 1.426 2.728 2.408 4.08 2.878a.367.367 0 0 0 .472-.256l.207-.743a.412.412 0 0 0-.263-.49c-1.37-.507-2.93-1.764-4.666-3.925l-1.029-1.281Z" fill="#261E2F"/><path fill-rule="evenodd" clip-rule="evenodd" d="M16.13 12.262a3.87 3.87 0 1 0 0 7.738 3.87 3.87 0 0 0 0-7.738Zm-2.326 3.869a2.327 2.327 0 1 1 4.654 0 2.327 2.327 0 0 1-4.654 0Z" fill="#261E2F"/></svg>