<svg width="24" height="24" fill="none" xmlns="http://www.w3.org/2000/svg"><path fill-rule="evenodd" clip-rule="evenodd" d="M4.6 7v10A1.4 1.4 0 0 0 6 18.4h12a1.4 1.4 0 0 0 1.4-1.4V7A1.4 1.4 0 0 0 18 5.6H6A1.4 1.4 0 0 0 4.6 7ZM3 17V7a3 3 0 0 1 3-3h12a3 3 0 0 1 3 3v10a3 3 0 0 1-3 3H6a3 3 0 0 1-3-3Z" fill="#000"/><path d="M9.2 13.8a.3.3 0 0 1 .3-.3h4.1c.106 0 .208-.04.283-.11a.363.363 0 0 0 .117-.265c0-.1-.042-.195-.117-.265a.414.414 0 0 0-.283-.11h-3.2a2.07 2.07 0 0 1-1.414-.55 1.818 1.818 0 0 1-.586-1.325c0-.497.21-.974.586-1.326A2.07 2.07 0 0 1 10.4 9h.8V7.8a.3.3 0 0 1 .3-.3h1a.3.3 0 0 1 .3.3V9h1.7a.3.3 0 0 1 .3.3v.9a.3.3 0 0 1-.3.3h-4.1a.414.414 0 0 0-.283.11.363.363 0 0 0-.117.265c0 .1.042.195.117.265.075.07.177.11.283.11h3.2c.53 0 1.039.198 1.414.55.375.35.586.828.586 1.325s-.21.974-.586 1.326A2.07 2.07 0 0 1 13.6 15h-.8v1.2a.3.3 0 0 1-.3.3h-1a.3.3 0 0 1-.3-.3V15H9.5a.3.3 0 0 1-.3-.3v-.9Z" fill="#000"/></svg>