<svg width="24" height="24" fill="none" xmlns="http://www.w3.org/2000/svg"><path fill-rule="evenodd" clip-rule="evenodd" d="M13.676 12.074c-.113-.174-.326-.43-.717-.82-.391-.392-.647-.605-.822-.718a1.108 1.108 0 0 0-.032-.02l-.031.02c-.175.113-.43.326-.822.717-.39.391-.604.647-.717.821a1.478 1.478 0 0 0-.02.032l.02.032c.113.175.326.43.717.821.391.391.647.605.822.717l.031.02a.934.934 0 0 0 .032-.02c.175-.112.43-.326.822-.717.39-.39.604-.646.717-.821l.02-.032a1.478 1.478 0 0 0-.02-.032Zm.066.12-.001-.002v.002Zm-.001-.173v-.003.003Zm-1.723 1.721h.002-.002Zm.173 0h.002-.002Zm-1.722-1.724.001.003v-.003Zm.001.174v.002-.002Zm1.723-1.722h-.002.002Zm-.173 0h-.002.002Zm2.07 3.62c1.654-1.653 1.654-2.315 0-3.968-1.654-1.654-2.315-1.654-3.969 0-1.654 1.653-1.654 2.315 0 3.969 1.654 1.653 2.315 1.653 3.969 0Z" fill="#261E2F"/><path d="M15 19.6c0-.22.179-.4.4-.4h4.7a.4.4 0 0 1 .4.4v.8a.4.4 0 0 1-.4.4h-4.7a.4.4 0 0 1-.4-.4v-.8ZM15 16.8c0-.22.179-.4.4-.4h3.2c.22 0 .4.18.4.4v.8a.4.4 0 0 1-.4.4h-3.2a.4.4 0 0 1-.4-.4v-.8Z" fill="#261E2F"/><path fill-rule="evenodd" clip-rule="evenodd" d="M12 19.45a.31.31 0 0 0-.3-.306 7.15 7.15 0 1 1 7.265-5.52.31.31 0 0 0 .215.37l.964.268c.16.044.325-.049.364-.21a8.75 8.75 0 1 0-8.809 6.693c.166.006.301-.13.301-.295v-1Z" fill="#261E2F"/></svg>