<svg width="24" height="24" fill="none" xmlns="http://www.w3.org/2000/svg"><path d="M14.8 15.1c.11 0 .2.09.2.2v1.2a.2.2 0 0 1-.2.2H9.2a.2.2 0 0 1-.2-.2v-1.2c0-.11.09-.2.2-.2h5.6ZM15 12.7a.2.2 0 0 0-.2-.2H9.2a.2.2 0 0 0-.2.2v1.2c0 .11.09.2.2.2h5.6a.2.2 0 0 0 .2-.2v-1.2Z" fill="#261E2F"/><path fill-rule="evenodd" clip-rule="evenodd" d="M7 3.5a2 2 0 0 0-2 2v13a2 2 0 0 0 2 2h10a2 2 0 0 0 2-2v-13a2 2 0 0 0-2-2H7Zm10 1.6H7a.4.4 0 0 0-.4.4v13c0 .221.18.4.4.4h10a.4.4 0 0 0 .4-.4v-13a.4.4 0 0 0-.4-.4Z" fill="#261E2F"/><path fill-rule="evenodd" clip-rule="evenodd" d="M15.283 7.783a.4.4 0 0 1 0 .566l-2.449 2.449a.4.4 0 0 1-.505.05l-1.227-.819-1.253 1.254a.4.4 0 0 1-.566 0l-.566-.566a.4.4 0 0 1 0-.566l1.95-1.948a.4.4 0 0 1 .504-.05l1.227.818 1.754-1.754a.4.4 0 0 1 .566 0l.565.566Z" fill="#261E2F"/></svg>