<svg width="24" height="24" fill="none" xmlns="http://www.w3.org/2000/svg"><path d="m11.667 21.725.338-.725.334.727-.336.155-.336-.157Z" fill="#000"/><path fill-rule="evenodd" clip-rule="evenodd" d="M12.8 8a.2.2 0 0 0-.2-.2h-1.2a.2.2 0 0 0-.2.2v.56l-.436.009c-.186.001-.368.003-.546 0v-.004l-.984-.012a.2.2 0 0 0-.203.198l-.005.524c-.001.108.038.195.145.195.166 0 .755.034.863.16.06.07.09.153.103.231l-.016 1.613c.024 0 .055.002.09.007h-.09l-.024 2.258c-.016.11-.083.284-.326.282a6.33 6.33 0 0 1-.451-.003.2.2 0 0 0-.203.165l-.11.625a.2.2 0 0 0 .194.235l.883.01.388.008.225.005.503.015v.72c0 .11.09.2.2.2h1.2a.2.2 0 0 0 .2-.2v-.7l.3-.003c1.444-.066 2.458-.419 2.597-1.777.113-1.095-.395-1.59-1.213-1.797.5-.248.817-.693.752-1.44-.088-1.022-.962-1.375-2.07-1.486l-.366-.02v-.577Zm-1.186 3.285.142.003c.587.017 1.865.053 1.875-.839.01-.912-1.221-.894-1.822-.886a7.113 7.113 0 0 1-.176.002l-.018 1.72Zm.14 2.769-.168-.004.02-1.897h.21c.72-.01 2.197-.026 2.186.977-.01.982-1.546.942-2.249.924Z" fill="#000"/><path fill-rule="evenodd" clip-rule="evenodd" d="m12.34 21.727.004-.002.013-.006.046-.021.17-.082a27.056 27.056 0 0 0 2.546-1.424c1.444-.916 3.224-2.257 4.08-3.805.335-.607.544-1.512.689-2.436.149-.953.243-2.034.304-3.064.122-2.06.11-3.967.106-4.333a.891.891 0 0 0-.55-.816c-.305-.128-1.772-.745-3.346-1.449-1.6-.715-3.229-1.485-3.909-1.925a.894.894 0 0 0-.974-.002c-.686.442-2.317 1.213-3.916 1.929a167.432 167.432 0 0 1-3.341 1.447.89.89 0 0 0-.55.804c-.008.364-.044 2.274.067 4.338.056 1.031.149 2.116.304 3.074.15.927.373 1.843.744 2.46.928 1.54 2.69 2.872 4.12 3.788a27.306 27.306 0 0 0 2.658 1.494l.045.021.012.006.003.002h.002l.338-.725.334.727ZM8.255 5.751c1.351-.605 2.845-1.3 3.748-1.815.902.515 2.394 1.21 3.745 1.814 1.196.535 2.33 1.02 2.951 1.283 0 .75-.014 2.213-.105 3.76a31.597 31.597 0 0 1-.288 2.911c-.142.912-.32 1.57-.509 1.91-.643 1.162-2.109 2.321-3.536 3.227a25.516 25.516 0 0 1-2.254 1.27 25.669 25.669 0 0 1-2.199-1.256c-1.402-.898-2.887-2.065-3.611-3.268-.2-.331-.389-.98-.536-1.889-.142-.878-.231-1.9-.285-2.904a59.947 59.947 0 0 1-.073-3.759c.618-.262 1.753-.747 2.952-1.284Z" fill="#000"/></svg>