<svg width="24" height="24" fill="none" xmlns="http://www.w3.org/2000/svg"><path fill-rule="evenodd" clip-rule="evenodd" d="M8.5 3.75a4.5 4.5 0 1 0 0 9 4.5 4.5 0 0 0 0-9Zm0 1.6a2.9 2.9 0 1 0 0 5.8 2.9 2.9 0 0 0 0-5.8ZM17.35 7.9a3.25 3.25 0 1 0 0 6.5 3.25 3.25 0 0 0 0-6.5Zm0 1.6a1.65 1.65 0 1 0 0 3.3 1.65 1.65 0 0 0 0-3.3ZM11.82 17.52a.4.4 0 0 1 .556 0l2.111 2.043a.4.4 0 0 1-.278.687H9.986a.4.4 0 0 1-.278-.687l2.111-2.044ZM19.938 17.395a.4.4 0 0 1-.456.334l-15.21-2.377a.4.4 0 0 1-.334-.457l.124-.79a.4.4 0 0 1 .457-.334l15.21 2.377a.4.4 0 0 1 .333.457l-.124.79Z" fill="#261E2F"/></svg>