<svg width="24" height="24" fill="none" xmlns="http://www.w3.org/2000/svg"><path fill-rule="evenodd" clip-rule="evenodd" d="M9.022 14.27a.3.3 0 0 1 0-.424l4.825-4.826a.3.3 0 0 1 .425 0l.707.708a.3.3 0 0 1 0 .424l-4.826 4.825a.3.3 0 0 1-.424 0l-.707-.707Z" fill="#000"/><path d="M11 9.999a1 1 0 1 1-2 0 1 1 0 0 1 2 0ZM15 13.999a1 1 0 1 1-2 0 1 1 0 0 1 2 0Z" fill="#000"/><path fill-rule="evenodd" clip-rule="evenodd" d="m12 4.836-6.4 3.6v7.128l6.4 3.6 6.4-3.6V8.436l-6.4-3.6Zm.49-1.56a1 1 0 0 0-.98 0l-7 3.937a1 1 0 0 0-.51.872v7.83a1 1 0 0 0 .51.872l7 3.937a1 1 0 0 0 .98 0l7-3.937a1 1 0 0 0 .51-.872v-7.83a1 1 0 0 0-.51-.872l-7-3.937Z" fill="#000"/></svg>