<svg width="24" height="24" fill="none" xmlns="http://www.w3.org/2000/svg"><path fill-rule="evenodd" clip-rule="evenodd" d="M4.805 8.357a.4.4 0 0 1 0-.714L11.55 4.23a1 1 0 0 1 .903 0l6.744 3.414a.4.4 0 0 1 0 .714l-6.744 3.414a1 1 0 0 1-.903 0L4.805 8.357ZM7.642 8 12 10.207 16.358 8 12 5.793 7.642 8Z" fill="#261E2F"/><path fill-rule="evenodd" clip-rule="evenodd" d="M4.89 10.745a.2.2 0 0 0-.29.179v1.218a.4.4 0 0 0 .222.357l6.731 3.366a1 1 0 0 0 .894 0L19.18 12.5a.4.4 0 0 0 .221-.357v-1.218a.2.2 0 0 0-.29-.18L12 14.3l-7.11-3.555Zm0 4a.2.2 0 0 0-.29.179v1.218a.4.4 0 0 0 .222.358l6.731 3.365a1 1 0 0 0 .894 0L19.18 16.5a.4.4 0 0 0 .221-.357v-1.218a.2.2 0 0 0-.29-.18L12 18.3l-7.11-3.555Z" fill="#261E2F"/></svg>