<svg width="24" height="24" fill="none" xmlns="http://www.w3.org/2000/svg"><path fill-rule="evenodd" clip-rule="evenodd" d="M17.5 4.6h-11a.4.4 0 0 0-.4.4v14c0 .22.18.4.4.4h8.417a.4.4 0 0 0 .284-.118l2.583-2.602a.4.4 0 0 0 .116-.282V5a.4.4 0 0 0-.4-.4ZM6.5 3h11a2 2 0 0 1 2 2v11.398a2 2 0 0 1-.58 1.41l-2.583 2.601a2 2 0 0 1-1.42.591H6.5a2 2 0 0 1-2-2V5a2 2 0 0 1 2-2Z" fill="#261E2F"/><path d="M8 9.4c0 .11.09.2.2.2h7.6a.2.2 0 0 0 .2-.2V8.2a.2.2 0 0 0-.2-.2H8.2a.2.2 0 0 0-.2.2v1.2ZM8 12.9c0 .11.09.2.2.2H13a.2.2 0 0 0 .2-.2v-1.2a.2.2 0 0 0-.2-.2H8.2a.2.2 0 0 0-.2.2v1.2Z" fill="#261E2F"/></svg>