<svg width="24" height="24" fill="none" xmlns="http://www.w3.org/2000/svg"><path fill-rule="evenodd" clip-rule="evenodd" d="m6.29 13.58-.578-6.734C7.248 6.45 9.892 5.706 12 4.768c2.108.937 4.753 1.682 6.289 2.078L18.189 8h1.607l.13-1.512a1.021 1.021 0 0 0-.775-1.074c-1.515-.377-4.736-1.247-6.972-2.326a.409.409 0 0 0-.357 0C9.586 4.167 6.365 5.037 4.849 5.414a1.021 1.021 0 0 0-.774 1.074l.62 7.23a7 7 0 0 0 3.351 5.39l3.747 2.267a.4.4 0 0 0 .414 0l3.747-2.267A6.998 6.998 0 0 0 18.46 16.5h-1.918c-.391.486-.868.907-1.415 1.239L12 19.629l-3.125-1.89A5.4 5.4 0 0 1 6.29 13.58Z" fill="#000"/><path fill-rule="evenodd" clip-rule="evenodd" d="M11.6 9.6v5.3h8.8V9.6h-8.8ZM11.5 8A1.5 1.5 0 0 0 10 9.5V15a1.5 1.5 0 0 0 1.5 1.5h9A1.5 1.5 0 0 0 22 15V9.5A1.5 1.5 0 0 0 20.5 8h-9Z" fill="#000"/><path fill-rule="evenodd" clip-rule="evenodd" d="M21 12.4H11v-1.6h10v1.6Z" fill="#000"/></svg>