<svg width="24" height="24" fill="none" xmlns="http://www.w3.org/2000/svg"><path fill-rule="evenodd" clip-rule="evenodd" d="M11.125 2a.335.335 0 0 0-.342.328V3.46c-.31.028-.614.07-.913.124C5.388 4.403 2 8.178 2 12.71 2 17.84 6.34 22 11.695 22c5.354 0 9.695-4.16 9.695-9.29a8.923 8.923 0 0 0-.64-3.327l1.06-.504a.322.322 0 0 0 .154-.44l-.254-.49C19.882 4.426 16.085 2 11.695 2h-.57Zm7.98 8.165-7.828 3.72c-.228.108-.495-.05-.495-.294V5.22c-3.916.433-6.957 3.621-6.957 7.49 0 4.165 3.523 7.541 7.87 7.541 4.346 0 7.87-3.376 7.87-7.54 0-.894-.162-1.751-.46-2.546Zm.186-2.04L12.607 11.3V4.15c0-.193.175-.345.375-.318 2.672.352 4.985 1.786 6.44 3.827.115.16.05.378-.13.464Z" fill="#000"/></svg>