<svg width="24" height="24" fill="none" xmlns="http://www.w3.org/2000/svg"><path fill-rule="evenodd" clip-rule="evenodd" d="M4.6 8.5v9c0 .22.18.4.4.4h14a.4.4 0 0 0 .4-.4v-9a.4.4 0 0 0-.4-.4H5a.4.4 0 0 0-.4.4Zm-1.6 9v-9a2 2 0 0 1 2-2h14a2 2 0 0 1 2 2v9a2 2 0 0 1-2 2H5a2 2 0 0 1-2-2Z" fill="#000"/><path d="m10.749 7 5.72-1.738L17.002 7h1.673l-.793-2.589a1.2 1.2 0 0 0-1.497-.796L5.25 6.999 10.75 7Z" fill="#000"/><path fill-rule="evenodd" clip-rule="evenodd" d="M16.533 10.783a.4.4 0 0 1 0 .566L13.07 14.81a.4.4 0 0 1-.523.037l-1.722-1.292L8.6 15.783a.4.4 0 0 1-.566 0l-.566-.566a.4.4 0 0 1 0-.566l2.963-2.962a.4.4 0 0 1 .523-.037l1.722 1.292 2.726-2.727a.4.4 0 0 1 .566 0l.566.566Z" fill="#000"/></svg>