<svg width="24" height="24" fill="none" xmlns="http://www.w3.org/2000/svg"><path fill-rule="evenodd" clip-rule="evenodd" d="M8.582 19.4H6.5a.9.9 0 0 1-.9-.9v-13a.9.9 0 0 1 .9-.9h10a.9.9 0 0 1 .9.9v3.743a7.45 7.45 0 0 1 1.6.622V5.5A2.5 2.5 0 0 0 16.5 3h-10A2.5 2.5 0 0 0 4 5.5v13A2.5 2.5 0 0 0 6.5 21h3a7.49 7.49 0 0 1-.918-1.6Z" fill="#000"/><path fill-rule="evenodd" clip-rule="evenodd" d="M15.5 20.4a3.9 3.9 0 1 0 0-7.8 3.9 3.9 0 0 0 0 7.8Zm0 1.6a5.5 5.5 0 1 0 0-11 5.5 5.5 0 0 0 0 11Z" fill="#000"/><path fill-rule="evenodd" clip-rule="evenodd" d="M14.7 14.614c0-.22.18-.4.4-.4h.8a.4.4 0 0 1 .4.4v1.518l1.417 1.215a.4.4 0 0 1 .043.564l-.52.607a.4.4 0 0 1-.564.043l-1.836-1.573a.4.4 0 0 1-.14-.304v-2.07Z" fill="#000"/><path d="M8 8c0 .22.18.4.4.4h6.2A.4.4 0 0 0 15 8v-.8a.4.4 0 0 0-.4-.4H8.4a.4.4 0 0 0-.4.4V8ZM8 11.2c0 .22.18.4.4.4h2.7a.4.4 0 0 0 .4-.4v-.8a.4.4 0 0 0-.4-.4H8.4a.4.4 0 0 0-.4.4v.8Z" fill="#000"/></svg>