<svg width="24" height="24" fill="none" xmlns="http://www.w3.org/2000/svg"><path fill-rule="evenodd" clip-rule="evenodd" d="M8.268 4.5H6.5a2 2 0 0 0-2 2V19a2 2 0 0 0 2 2h11a2 2 0 0 0 2-2V6.5a2 2 0 0 0-2-2h-1.768c.17.294.268.636.268 1v.6h1.5c.22 0 .4.18.4.4V19a.4.4 0 0 1-.4.4h-11a.4.4 0 0 1-.4-.4V6.5c0-.22.18-.4.4-.4H8v-.6c0-.364.097-.706.268-1Z" fill="#261E2F"/><path fill-rule="evenodd" clip-rule="evenodd" d="M14 5.1h-4a.4.4 0 0 0-.4.4v1c0 .22.18.4.4.4h4.222c.098 0 .178-.08.178-.178V5.5a.4.4 0 0 0-.4-.4Zm-4-1.6h4a2 2 0 0 1 2 2v1.222c0 .982-.796 1.778-1.778 1.778H10a2 2 0 0 1-2-2v-1a2 2 0 0 1 2-2Z" fill="#261E2F"/><path d="M14.8 10.5c.11 0 .2.09.2.2v1.2a.2.2 0 0 1-.2.2H9.2a.2.2 0 0 1-.2-.2v-1.2c0-.11.09-.2.2-.2h5.6ZM12.8 13.4c.11 0 .2.09.2.2v1.2a.2.2 0 0 1-.2.2H9.2a.2.2 0 0 1-.2-.2v-1.2c0-.11.09-.2.2-.2h3.6Z" fill="#261E2F"/></svg>