<svg width="24" height="24" fill="none" xmlns="http://www.w3.org/2000/svg"><path fill-rule="evenodd" clip-rule="evenodd" d="M12.005 3.936c-.904.514-2.398 1.21-3.749 1.815a168.647 168.647 0 0 1-2.952 1.284c-.009.746-.01 2.21.073 3.759.054 1.003.143 2.025.285 2.904.147.91.336 1.558.536 1.89.724 1.201 2.209 2.368 3.612 3.267a25.669 25.669 0 0 0 2.198 1.255 25.562 25.562 0 0 0 2.253-1.27c1.428-.905 2.894-2.064 3.537-3.227.188-.34.367-.998.509-1.91.138-.881.229-1.906.288-2.91.091-1.547.105-3.01.105-3.76A166.52 166.52 0 0 1 15.75 5.75c-1.35-.604-2.843-1.3-3.745-1.814Zm0 17.064-.338.725h-.002l-.003-.003-.012-.005-.045-.022a23.634 23.634 0 0 1-.756-.384c-.494-.262-1.17-.64-1.902-1.109-1.43-.916-3.192-2.249-4.12-3.79-.37-.615-.594-1.532-.744-2.458-.155-.958-.248-2.043-.304-3.074a61.574 61.574 0 0 1-.067-4.338.89.89 0 0 1 .55-.804c.302-.127 1.767-.744 3.34-1.448 1.6-.716 3.231-1.486 3.917-1.928a.894.894 0 0 1 .974.002c.68.44 2.308 1.21 3.909 1.925 1.574.704 3.04 1.32 3.346 1.449.31.13.546.433.55.815.004.367.016 2.274-.106 4.334-.06 1.03-.155 2.11-.304 3.064-.145.923-.354 1.829-.69 2.436-.855 1.547-2.635 2.889-4.08 3.805a27.056 27.056 0 0 1-2.715 1.505l-.046.022-.013.006-.003.001s-.002.001-.335-.726Zm0 0-.338.725.336.156.338-.155-.335-.726Z" fill="#000"/><path fill-rule="evenodd" clip-rule="evenodd" d="M16.083 9.783a.4.4 0 0 1 0 .566l-4.5 4.5a.4.4 0 0 1-.566 0l-2.5-2.5a.4.4 0 0 1 0-.566l.566-.566a.4.4 0 0 1 .566 0L11.3 12.87l3.652-3.652a.4.4 0 0 1 .566 0l.565.566Z" fill="#000"/></svg>