<svg width="24" height="24" fill="none" xmlns="http://www.w3.org/2000/svg"><path d="M15.872 11.67a.3.3 0 0 1 .022.424l-3.103 3.448a.3.3 0 0 1-.402.04l-1.28-.949-1.814 2.015a.3.3 0 0 1-.423.022l-.744-.669a.3.3 0 0 1-.022-.424l2.603-2.892a.3.3 0 0 1 .402-.04l1.28.948 2.314-2.57a.3.3 0 0 1 .423-.022l.744.669Z" fill="#000"/><path fill-rule="evenodd" clip-rule="evenodd" d="M8 4.3a.3.3 0 0 1 .3-.3h1a.3.3 0 0 1 .3.3V5H14v-.7a.3.3 0 0 1 .3-.3h1a.3.3 0 0 1 .3.3V5h2.9a2 2 0 0 1 2 2v11a2 2 0 0 1-2 2h-13a2 2 0 0 1-2-2V7a2 2 0 0 1 2-2H8v-.7Zm6 2.3v.6a.3.3 0 0 0 .3.3h1a.3.3 0 0 0 .3-.3v-.6h2.9c.22 0 .4.18.4.4v1.2H5.1V7c0-.22.18-.4.4-.4H8v.6a.3.3 0 0 0 .3.3h1a.3.3 0 0 0 .3-.3v-.6H14Zm4.9 3.2H5.1V18c0 .221.18.4.4.4h13a.4.4 0 0 0 .4-.4V9.8Z" fill="#000"/></svg>