<svg width="24" height="24" fill="none" xmlns="http://www.w3.org/2000/svg"><path fill-rule="evenodd" clip-rule="evenodd" d="M6.5 20.5h11a2.75 2.75 0 0 0 2.75-2.75V6.345c0-.996 0-1.494-.218-1.874a1.904 1.904 0 0 0-.874-.777C18.73 3.5 18.17 3.5 17.05 3.5h-6.6c-1.12 0-1.68 0-2.108.194-.377.17-.683.442-.875.777-.217.38-.217.878-.217 1.874v11.933h1.6V6.344c0-.527.001-.814.02-1.02l.01-.09a.372.372 0 0 1 .116-.08c.016-.005.086-.021.256-.034.262-.019.614-.02 1.197-.02h6.6c.584 0 .936.001 1.198.02.17.013.24.03.257.034a.372.372 0 0 1 .115.08c.003.02.007.05.01.09.02.206.02.493.02 1.02V17.75A1.15 1.15 0 0 1 17.5 18.9H8.74a1.818 1.818 0 0 0 .11-.636M6.5 20.5l.721-2.112L6.5 20.5Z" fill="#000"/><path fill-rule="evenodd" clip-rule="evenodd" d="M6.25 18.9c.357 0 .9-.368.9-1.15V14.1h-1.8v3.65c0 .782.543 1.15.9 1.15Zm-1.5-6.4a1 1 0 0 0-1 1v4.25c0 1.519 1.12 2.75 2.5 2.75s2.5-1.231 2.5-2.75V12.5h-4Z" fill="#000"/><path d="M16.3 8.5c.11 0 .2.09.2.2v1.2a.2.2 0 0 1-.2.2h-5.1a.2.2 0 0 1-.2-.2V8.7c0-.11.09-.2.2-.2h5.1ZM16.3 12c.11 0 .2.09.2.2v1.2a.2.2 0 0 1-.2.2h-5.1a.2.2 0 0 1-.2-.2v-1.2c0-.11.09-.2.2-.2h5.1Z" fill="#000"/></svg>