<svg width="24" height="24" fill="none" xmlns="http://www.w3.org/2000/svg"><path fill-rule="evenodd" clip-rule="evenodd" d="M12 19.65a7.65 7.65 0 1 0 0-15.3 7.65 7.65 0 0 0 0 15.3Zm0 1.6a9.25 9.25 0 1 0 0-18.5 9.25 9.25 0 0 0 0 18.5Z" fill="#261E2F"/><path fill-rule="evenodd" clip-rule="evenodd" d="M13.482 7.5a.4.4 0 0 1 .563.063l2.53 3.162a.2.2 0 0 1-.157.325H7.57a.4.4 0 0 1-.4-.4v-.8c0-.221.18-.4.4-.4h5.935l-.71-.888A.4.4 0 0 1 12.858 8l.624-.5ZM10.522 16.55a.4.4 0 0 1-.562-.062l-2.53-3.163A.2.2 0 0 1 7.586 13h8.849c.22 0 .4.18.4.4v.8a.4.4 0 0 1-.4.4h-5.936l.71.888a.4.4 0 0 1-.062.563l-.625.5Z" fill="#261E2F"/></svg>