<svg width="24" height="24" fill="none" xmlns="http://www.w3.org/2000/svg"><path fill-rule="evenodd" clip-rule="evenodd" d="M2 4.89a.56.56 0 0 1 .555-.565h1.109a.56.56 0 0 1 .554.565V18.74h16.358a.56.56 0 0 1 .555.565v1.13a.56.56 0 0 1-.555.566H2.555A.56.56 0 0 1 2 20.435V4.89Z" fill="#000"/><path fill-rule="evenodd" clip-rule="evenodd" d="M21.667 4.772a.43.43 0 0 1 .059.597l-6.41 7.985a.41.41 0 0 1-.58.063l-3.173-2.588-3.88 4.52a.41.41 0 0 1-.586.04l-1.044-.93a.43.43 0 0 1-.039-.599l5.015-5.842a.41.41 0 0 1 .573-.052l3.127 2.55 5.28-6.579a.41.41 0 0 1 .585-.06l1.073.895Z" fill="#000"/><path d="M22 7.718V3.283a.278.278 0 0 0-.351-.273l-4.143 1.165a.285.285 0 0 0-.096.496l4.143 3.27A.277.277 0 0 0 22 7.719Z" fill="#000"/></svg>