<svg width="24" height="24" fill="none" xmlns="http://www.w3.org/2000/svg"><path fill-rule="evenodd" clip-rule="evenodd" d="m12 4.836-6.4 3.6v7.128l6.4 3.6 6.4-3.6V8.436l-6.4-3.6Zm.49-1.56a1 1 0 0 0-.98 0l-7 3.937a1 1 0 0 0-.51.872v7.83a1 1 0 0 0 .51.872l7 3.937a1 1 0 0 0 .98 0l7-3.937a1 1 0 0 0 .51-.872v-7.83a1 1 0 0 0-.51-.872l-7-3.937Z" fill="#261E2F"/><path d="m15.789 9.23-.266.752c-.595 1.687-2.032 3.04-3.371 4a18.013 18.013 0 0 1-3.122 1.782.241.241 0 0 1-.32-.133l-.372-.913a.252.252 0 0 1 .134-.325c.617-.273 1.725-.83 2.817-1.613.733-.526 1.422-1.127 1.959-1.785a14.423 14.423 0 0 1-1.05.21.253.253 0 0 1-.287-.23l-.081-1.004a.22.22 0 0 1 .181-.234l.187-.032a13.718 13.718 0 0 0 2.365-.66l.745-.284a.37.37 0 0 1 .48.469Z" fill="#261E2F"/></svg>