<svg width="24" height="24" fill="none" xmlns="http://www.w3.org/2000/svg"><path d="M18.375 10.116a.908.908 0 0 0 .248.883l.266.266h-1.44a.908.908 0 0 0 0 1.816h1.44l-.267.266a.908.908 0 0 0 1.284 1.284l1.816-1.816a.908.908 0 0 0-.117-1.402l-1.698-1.698a.908.908 0 0 0-1.532.4ZM7.46 12.173a.908.908 0 0 1-.908.908h-1.44l.265.266a.908.908 0 0 1-1.284 1.284l-1.816-1.816a.908.908 0 0 1 .117-1.402l1.699-1.698a.908.908 0 1 1 1.284 1.284l-.267.266h1.442c.501 0 .908.406.908.908ZM21.081 15.805a.908.908 0 0 0-.908.908v.908a.908.908 0 0 1-.908.908H4.735a.908.908 0 0 1-.908-.908v-.908a.908.908 0 0 0-1.816 0v.908a2.724 2.724 0 0 0 2.724 2.725h14.53a2.724 2.724 0 0 0 2.724-2.725v-.908a.908.908 0 0 0-.908-.908ZM2.92 8.552a.908.908 0 0 0 .907-.908v-.92c0-.501.407-.908.908-.908h14.53c.501 0 .908.407.908.908v.908a.908.908 0 0 0 1.816 0v-.908A2.724 2.724 0 0 0 19.265 4H4.735a2.724 2.724 0 0 0-2.724 2.724v.92c0 .502.407.908.908.908Z" fill="#261E2F"/><path d="M12.908 8.54h1.816a.908.908 0 0 1 0 1.817h-4.528v.908h3.62c1.003 0 1.816.813 1.816 1.816v.908a1.816 1.816 0 0 1-1.816 1.816h-.908v.908a.908.908 0 1 1-1.816 0v-.908H9.274a.908.908 0 1 1 0-1.816h4.54v-.908h-3.619a1.816 1.816 0 0 1-1.816-1.816v-.908c0-1.003.813-1.816 1.816-1.816h.896v-.909a.908.908 0 1 1 1.816 0v.909Z" fill="#261E2F"/></svg>