<svg width="24" height="24" fill="none" xmlns="http://www.w3.org/2000/svg"><path d="M18.4 13A6.4 6.4 0 1 1 6.81 9.255c.194-.269.171-.647-.078-.865l-.301-.263a.567.567 0 0 0-.83.07 8 8 0 1 0 12.797 0 .567.567 0 0 0-.829-.07l-.3.263c-.25.218-.273.596-.079.865A6.371 6.371 0 0 1 18.4 13Z" fill="#261E2F"/><path fill-rule="evenodd" clip-rule="evenodd" d="M11.61 3.281a.6.6 0 0 1 .78 0l3.175 2.721a.6.6 0 0 1 .065.846l-.26.304a.6.6 0 0 1-.846.065L12.8 5.739V14.4a.6.6 0 0 1-.6.6h-.4a.6.6 0 0 1-.6-.6V5.74L9.476 7.216a.6.6 0 0 1-.846-.065l-.26-.304a.6.6 0 0 1 .065-.846l3.175-2.72Z" fill="#261E2F"/></svg>