<svg width="24" height="24" fill="none" xmlns="http://www.w3.org/2000/svg"><path fill-rule="evenodd" clip-rule="evenodd" d="M13.334 8.3a.3.3 0 0 0-.3-.3h-1a.3.3 0 0 0-.3.3v3.65l-2.51 2.254a.3.3 0 0 0-.024.424l.668.744a.3.3 0 0 0 .424.023l2.91-2.611a.4.4 0 0 0 .132-.298V8.3Z" fill="#000"/><path fill-rule="evenodd" clip-rule="evenodd" d="M12 19.45a.31.31 0 0 0-.3-.306 7.15 7.15 0 1 1 7.265-5.52.31.31 0 0 0 .215.37l.964.268a.292.292 0 0 0 .364-.21 8.75 8.75 0 1 0-8.809 6.693c.166.006.301-.13.301-.295v-1Z" fill="#000"/><path d="M15 19.6c0-.221.179-.4.4-.4h4.7c.22 0 .4.179.4.4v.8a.4.4 0 0 1-.4.4h-4.7a.4.4 0 0 1-.4-.4v-.8ZM15 16.8c0-.221.179-.4.4-.4h3.2c.22 0 .4.179.4.4v.8a.4.4 0 0 1-.4.4h-3.2a.4.4 0 0 1-.4-.4v-.8Z" fill="#000"/></svg>