<svg width="24" height="24" fill="none" xmlns="http://www.w3.org/2000/svg"><path d="M15.872 10.335a.3.3 0 0 1 .022.423l-3.104 3.448a.3.3 0 0 1-.401.04l-1.28-.948-1.814 2.014a.3.3 0 0 1-.423.023l-.744-.67a.3.3 0 0 1-.022-.423l2.603-2.893a.3.3 0 0 1 .402-.04l1.28.949 2.314-2.57a.3.3 0 0 1 .423-.022l.744.668Z" fill="#000"/><path fill-rule="evenodd" clip-rule="evenodd" d="M6.5 21h11a2 2 0 0 0 2-2V7.602a2 2 0 0 0-.58-1.41l-2.583-2.601A2 2 0 0 0 14.917 3H6.5a2 2 0 0 0-2 2v14a2 2 0 0 0 2 2Zm11-1.6h-11a.4.4 0 0 1-.4-.4V5c0-.22.18-.4.4-.4h8.417a.4.4 0 0 1 .083.009V7.1c0 .22.18.4.4.4h2.487a.4.4 0 0 1 .013.102V19a.4.4 0 0 1-.4.4Z" fill="#000"/></svg>