<svg width="24" height="24" fill="none" xmlns="http://www.w3.org/2000/svg"><path d="M16.5 5.6h.5c.22 0 .4.18.4.4v.5H19V6a2 2 0 0 0-2-2h-.5v1.6ZM15 5.6V4h-2v1.6h2ZM11.5 5.6V4h-.511A2 2 0 0 0 9 6v.5h1.6V6c0-.22.18-.4.4-.4h.5ZM16.5 14.4V16h.5a2 2 0 0 0 2-2v-.5h-1.6v.5a.4.4 0 0 1-.4.4h-.5ZM17.4 12.35H19V10.6h-1.6v1.75ZM17.4 9.55H19V7.8h-1.6v1.75Z" fill="#261E2F"/><path fill-rule="evenodd" clip-rule="evenodd" d="M13 9.6H7a.4.4 0 0 0-.4.4v8c0 .22.18.4.4.4h6a.4.4 0 0 0 .4-.4v-8a.4.4 0 0 0-.4-.4ZM7 8a2 2 0 0 0-2 2v8a2 2 0 0 0 2 2h6a2 2 0 0 0 2-2v-8a2 2 0 0 0-2-2H7Z" fill="#261E2F"/></svg>