<svg width="24" height="24" fill="none" xmlns="http://www.w3.org/2000/svg"><path fill-rule="evenodd" clip-rule="evenodd" d="M12.4 4c.22 0 .4.18.4.4v9.464l2.893-2.25a.4.4 0 0 1 .561.07l.491.632a.4.4 0 0 1-.07.561l-4.43 3.446a.4.4 0 0 1-.491 0l-4.43-3.446a.4.4 0 0 1-.07-.561l.492-.632a.4.4 0 0 1 .56-.07l2.894 2.25V4.4c0-.22.179-.4.4-.4h.8Z" fill="#000"/><path fill-rule="evenodd" clip-rule="evenodd" d="M5.9 16c.221 0 .4.18.4.4v1.7a.6.6 0 0 0 .6.6h10.2a.6.6 0 0 0 .6-.6v-1.7c0-.22.18-.4.4-.4h.8c.221 0 .4.18.4.4v1.7a2.2 2.2 0 0 1-2.2 2.2H6.9a2.2 2.2 0 0 1-2.2-2.2v-1.7c0-.22.18-.4.4-.4h.8Z" fill="#000"/></svg>