<svg width="24" height="24" fill="none" xmlns="http://www.w3.org/2000/svg"><path d="M18 17.161v-6.193c0-.428.336-.774.75-.774s.75.346.75.774v6.193C19.5 18.73 18.269 20 16.75 20h-10C5.231 20 4 18.73 4 17.161V6.84C4 5.27 5.231 4 6.75 4h5c.414 0 .75.347.75.774a.762.762 0 0 1-.75.774h-5c-.69 0-1.25.578-1.25 1.29v10.323c0 .713.56 1.29 1.25 1.29h10c.69 0 1.25-.577 1.25-1.29Z" fill="#000"/><path d="m19.28 5.322-8 8.258a.733.733 0 0 1-1.06 0 .792.792 0 0 1 0-1.095l8-8.258a.733.733 0 0 1 1.06 0 .792.792 0 0 1 0 1.095Z" fill="#000"/></svg>