<svg width="24" height="24" fill="none" xmlns="http://www.w3.org/2000/svg"><path fill-rule="evenodd" clip-rule="evenodd" d="M14.31 4.85H9.69c-1.166 0-1.942.001-2.539.05-.577.049-.84.133-1.007.22A2.4 2.4 0 0 0 5.12 6.144c-.087.167-.171.43-.22 1.007-.049.597-.05 1.373-.05 2.539v4.62c0 1.166.001 1.942.05 2.539.049.577.133.84.22 1.007a2.4 2.4 0 0 0 1.024 1.024c.167.087.43.171 1.007.22.597.049 1.373.05 2.539.05h4.62c1.166 0 1.942-.001 2.539-.05.577-.049.84-.134 1.007-.22a2.4 2.4 0 0 0 1.024-1.024c.087-.167.171-.43.22-1.007.049-.597.05-1.373.05-2.539V9.69c0-1.166-.001-1.942-.05-2.539-.049-.577-.133-.84-.22-1.007a2.4 2.4 0 0 0-1.024-1.024c-.167-.087-.43-.171-1.007-.22-.597-.049-1.373-.05-2.539-.05ZM3.7 5.406c-.45.867-.45 2.006-.45 4.284v4.62c0 2.278 0 3.417.45 4.284A4 4 0 0 0 5.406 20.3c.867.45 2.006.45 4.284.45h4.62c2.278 0 3.417 0 4.284-.45a4 4 0 0 0 1.706-1.706c.45-.867.45-2.006.45-4.284V9.69c0-2.278 0-3.417-.45-4.284A4 4 0 0 0 18.594 3.7c-.867-.45-2.006-.45-4.284-.45H9.69c-2.278 0-3.417 0-4.284.45A4 4 0 0 0 3.7 5.406Z" fill="#261E2F"/><path fill-rule="evenodd" clip-rule="evenodd" d="M15.2 8.8h-1.9a.3.3 0 0 1-.3-.3v-1a.3.3 0 0 1 .3-.3h2.6a.9.9 0 0 1 .9.9v2.6a.3.3 0 0 1-.3.3h-1a.3.3 0 0 1-.3-.3V8.8ZM8.8 15.2h2c.11 0 .2.09.2.2v1.2a.2.2 0 0 1-.2.2H8.1a.9.9 0 0 1-.9-.9v-2.7c0-.11.09-.2.2-.2h1.2c.11 0 .2.09.2.2v2Z" fill="#261E2F"/></svg>