<svg width="24" height="24" fill="none" xmlns="http://www.w3.org/2000/svg"><path fill-rule="evenodd" clip-rule="evenodd" d="M12 8.1c-3.676 0-5.357 2.149-6.07 3.466a.894.894 0 0 0 0 .868C6.642 13.75 8.323 15.9 12 15.9c3.675 0 5.357-2.149 6.07-3.466a.895.895 0 0 0 0-.868C17.357 10.25 15.675 8.1 12 8.1Zm-7.478 2.704C5.398 9.186 7.527 6.5 12 6.5c4.473 0 6.602 2.686 7.478 4.304.407.752.407 1.64 0 2.392-.876 1.618-3.005 4.304-7.478 4.304-4.472 0-6.6-2.686-7.477-4.304a2.494 2.494 0 0 1 0-2.392Z" fill="#000"/><path d="M14 12a2 2 0 1 1-4 0 2 2 0 0 1 4 0Z" fill="#000"/></svg>