<svg width="24" height="24" fill="none" xmlns="http://www.w3.org/2000/svg"><path fill-rule="evenodd" clip-rule="evenodd" d="M17.151 18.283a.4.4 0 0 0 .566 0l.565-.566a.4.4 0 0 0 0-.566l-1.196-1.196a8.315 8.315 0 0 0 2.39-2.76 2.494 2.494 0 0 0 0-2.39C18.602 9.185 16.473 6.5 12 6.5c-1.42 0-2.603.27-3.585.691a.193.193 0 0 0-.056.037l-1.511-1.51a.4.4 0 0 0-.566 0l-.565.565a.4.4 0 0 0 0 .566L17.15 18.283ZM9.591 8.46A7.733 7.733 0 0 1 12 8.1c3.675 0 5.357 2.149 6.07 3.466.15.276.15.591 0 .868-.377.696-1.024 1.624-2.093 2.345a.209.209 0 0 0-.036.03l-2.085-2.084a.174.174 0 0 0 .026-.05 2 2 0 0 0-2.559-2.559.174.174 0 0 0-.048.028L9.59 8.46Z" fill="#000"/><path d="M6.902 9.903a.205.205 0 0 1 .004.283c-.44.48-.755.97-.977 1.38a.894.894 0 0 0 0 .868C6.643 13.75 8.324 15.9 12 15.9c.266 0 .52-.011.765-.032a.203.203 0 0 1 .161.058l1.07 1.069c.11.11.056.299-.097.329a9.908 9.908 0 0 1-1.899.176c-4.472 0-6.6-2.686-7.477-4.304a2.494 2.494 0 0 1 0-2.392 8.57 8.57 0 0 1 1.25-1.745.196.196 0 0 1 .283-.004l.847.848Z" fill="#000"/></svg>