<svg width="24" height="24" fill="none" xmlns="http://www.w3.org/2000/svg"><path fill-rule="evenodd" clip-rule="evenodd" d="M17.151 18.283a.4.4 0 0 0 .566 0l.566-.566a.4.4 0 0 0 0-.566l-1.54-1.538a7.622 7.622 0 0 0 2.265-2.522 2.219 2.219 0 0 0 0-2.181C18.185 9.438 16.19 7 12 7c-1.29 0-2.372.231-3.275.594L6.848 5.717a.4.4 0 0 0-.565 0l-.566.566a.4.4 0 0 0 0 .566L17.15 18.283Zm-5.687-7.95-1.126-1.126a3.25 3.25 0 0 1 4.456 4.456l-1.128-1.128a1.75 1.75 0 0 0-2.202-2.202Zm-5.222-1.09 2.517 2.516a3.25 3.25 0 0 0 3.482 3.482l1.589 1.589A9.538 9.538 0 0 1 12 17c-4.19 0-6.186-2.438-7.008-3.91a2.218 2.218 0 0 1 0-2.18 7.786 7.786 0 0 1 1.25-1.667Z" fill="#000"/></svg>