<svg width="24" height="24" fill="none" xmlns="http://www.w3.org/2000/svg"><path d="M14.375 5.85a1.075 1.075 0 0 1 1.075 1.075v.125c0 .22.18.4.4.4h.8a.4.4 0 0 0 .4-.4v-.125a2.675 2.675 0 0 0-2.675-2.675h-6.5A2.675 2.675 0 0 0 5.2 6.925v10.15a2.675 2.675 0 0 0 2.675 2.675H14c.717 0 1.45-.283 2.007-.72.554-.434 1.043-1.112 1.043-1.955v-.125a.4.4 0 0 0-.4-.4h-.8a.4.4 0 0 0-.4.4v.125c0 .193-.118.452-.43.696-.309.242-.701.379-1.02.379H7.875A1.075 1.075 0 0 1 6.8 17.075V6.925A1.075 1.075 0 0 1 7.875 5.85h6.5Z" fill="#000"/><path d="M16.804 8.296a.4.4 0 0 1 .564.044l2.851 3.326a.6.6 0 0 1 0 .781l-2.851 3.327a.4.4 0 0 1-.564.043l-.608-.52a.4.4 0 0 1-.043-.565l1.608-1.875H11.4a.4.4 0 0 1-.4-.4v-.8c0-.221.18-.4.4-.4h6.36L16.154 9.38a.4.4 0 0 1 .043-.564l.608-.52Z" fill="#000"/></svg>