<svg width="24" height="24" fill="none" xmlns="http://www.w3.org/2000/svg"><path d="M6 11.4c0-.22.18-.4.4-.4h1.2c.22 0 .4.18.4.4v1.2a.4.4 0 0 1-.4.4H6.4a.4.4 0 0 1-.4-.4v-1.2ZM11 11.4c0-.22.18-.4.4-.4h1.2c.22 0 .4.18.4.4v1.2a.4.4 0 0 1-.4.4h-1.2a.4.4 0 0 1-.4-.4v-1.2ZM16.4 11a.4.4 0 0 0-.4.4v1.2c0 .22.18.4.4.4h1.2a.4.4 0 0 0 .4-.4v-1.2a.4.4 0 0 0-.4-.4h-1.2Z" fill="#000"/><path d="M5.5 11.28a.48.48 0 0 1 .48-.48h1.44a.48.48 0 0 1 .48.48v1.44a.48.48 0 0 1-.48.48H5.98a.48.48 0 0 1-.48-.48v-1.44ZM10.8 11.28a.48.48 0 0 1 .48-.48h1.44a.48.48 0 0 1 .48.48v1.44a.48.48 0 0 1-.48.48h-1.44a.48.48 0 0 1-.48-.48v-1.44ZM16.1 11.28a.48.48 0 0 1 .48-.48h1.44a.48.48 0 0 1 .48.48v1.44a.48.48 0 0 1-.48.48h-1.44a.48.48 0 0 1-.48-.48v-1.44Z" fill="#000"/></svg>