<svg width="24" height="24" fill="none" xmlns="http://www.w3.org/2000/svg"><path fill-rule="evenodd" clip-rule="evenodd" d="M12 19.9a7.9 7.9 0 1 0 0-15.8 7.9 7.9 0 0 0 0 15.8Zm0 1.6a9.5 9.5 0 1 0 0-19 9.5 9.5 0 0 0 0 19Z" fill="#261E2F"/><path fill-rule="evenodd" clip-rule="evenodd" d="M11.2 15.6c0 .22.18.4.4.4h.8a.4.4 0 0 0 .4-.4v-2.8h2.8a.4.4 0 0 0 .4-.4v-.8a.4.4 0 0 0-.4-.4h-2.8V8.4a.4.4 0 0 0-.4-.4h-.8a.4.4 0 0 0-.4.4v2.8H8.4a.4.4 0 0 0-.4.4v.8c0 .22.18.4.4.4h2.8v2.8Z" fill="#261E2F"/></svg>