<svg width="24" height="24" fill="none" xmlns="http://www.w3.org/2000/svg"><path fill-rule="evenodd" clip-rule="evenodd" d="M14 7.6H7a.4.4 0 0 0-.4.4v11c0 .22.18.4.4.4h7a.4.4 0 0 0 .4-.4V8a.4.4 0 0 0-.4-.4ZM7 6a2 2 0 0 0-2 2v11a2 2 0 0 0 2 2h7a2 2 0 0 0 2-2V8a2 2 0 0 0-2-2H7Z" fill="#000"/><path fill-rule="evenodd" clip-rule="evenodd" d="M16 4.8h-5.1a.4.4 0 0 1-.4-.4v-.8c0-.221.18-.4.4-.4H16A2.8 2.8 0 0 1 18.8 6v5.069l.351-.352a.4.4 0 0 1 .566 0l.566.566a.4.4 0 0 1 0 .566l-2.23 2.229a.5.5 0 0 1-.853-.354V6A1.2 1.2 0 0 0 16 4.8Z" fill="#000"/></svg>