<svg width="24" height="24" fill="none" xmlns="http://www.w3.org/2000/svg"><path fill-rule="evenodd" clip-rule="evenodd" d="M4 6.75A2.75 2.75 0 0 1 6.75 4h2v1.5h-2c-.69 0-1.25.56-1.25 1.25v2H4v-2Zm0 10.5A2.75 2.75 0 0 0 6.75 20h2v-1.5h-2c-.69 0-1.25-.56-1.25-1.25v-2H4v2ZM17.25 4A2.75 2.75 0 0 1 20 6.75v2h-1.5v-2c0-.69-.56-1.25-1.25-1.25h-2V4h2ZM20 17.25A2.75 2.75 0 0 1 17.25 20h-2v-1.5h2c.69 0 1.25-.56 1.25-1.25v-2H20v2Zm-4.3-4.5a.3.3 0 0 0 .3-.3v-.9a.3.3 0 0 0-.3-.3H8.3a.3.3 0 0 0-.3.3v.9a.3.3 0 0 0 .3.3h7.4Z" fill="#000"/></svg>