<svg width="24" height="24" fill="none" xmlns="http://www.w3.org/2000/svg"><path d="M18.372 12.6a6.4 6.4 0 1 1-6.971-6.972C11.73 5.597 12 5.33 12 5v-.55a.431.431 0 0 0-.45-.438 8 8 0 1 0 8.438 8.438.431.431 0 0 0-.438-.45H19c-.331 0-.597.27-.628.6Z" fill="#000"/><path d="M11.8 13.5h.4c.331 0 .596-.27.636-.598.23-1.905 1.655-4.374 6.713-5.464.206-.045.31-.281.181-.45-1.206-1.587-3.23-2.366-4.106-2.642a.421.421 0 0 0-.534.308l-.167.657a.498.498 0 0 0 .346.586c.43.133 1.082.39 1.624.834-.453.17-.955.362-1.46.558a6.641 6.641 0 0 0-4.206 5.612c-.03.33.241.599.573.599Z" fill="#000"/></svg>