<svg width="24" height="24" fill="none" xmlns="http://www.w3.org/2000/svg"><path fill-rule="evenodd" clip-rule="evenodd" d="m7.627 18.392 2.837-1.384.05-.025c.183-.091.563-.28.988-.354.33-.058.667-.058.996 0 .426.074.805.263.988.354l.05.025 2.837 1.384-.447-3.11-.008-.056c-.03-.201-.094-.618-.034-1.043.047-.33.151-.649.308-.943.202-.38.5-.68.644-.825l.04-.04 2.2-2.255-3.113-.538a6.615 6.615 0 0 0-.055-.01c-.203-.033-.621-.101-1.009-.29a2.89 2.89 0 0 1-.806-.583c-.3-.308-.496-.683-.59-.864l-.026-.05L12 5.009l-1.477 2.778-.026.05c-.094.18-.29.555-.59.863a2.89 2.89 0 0 1-.806.583c-.388.189-.806.257-1.009.29l-.055.01-3.113.538 2.2 2.256.04.04c.144.144.442.445.644.824.157.294.26.613.308.943.06.425-.003.842-.034 1.043l-.008.055-.447 3.111Zm4.54.125c.134.023.263.086.52.212l3.459 1.687c.878.428 1.317.642 1.646.57a.963.963 0 0 0 .624-.45c.17-.29.101-.77-.037-1.733l-.545-3.793c-.04-.282-.061-.423-.042-.558a.953.953 0 0 1 .103-.315c.064-.12.164-.222.364-.427l2.682-2.75c.681-.697 1.021-1.046 1.054-1.38a.955.955 0 0 0-.238-.73c-.224-.25-.705-.333-1.669-.5l-3.795-.656c-.282-.05-.424-.073-.547-.133a.964.964 0 0 1-.269-.195c-.095-.098-.162-.224-.296-.476L13.38 3.504c-.457-.86-.686-1.29-.994-1.424a.968.968 0 0 0-.772 0c-.308.134-.537.564-.994 1.424L8.82 6.89c-.135.252-.202.378-.297.476a.963.963 0 0 1-.269.195c-.123.06-.264.084-.547.133l-3.795.656c-.964.167-1.445.25-1.669.5a.955.955 0 0 0-.238.73c.033.334.373.683 1.054 1.38l2.682 2.75c.2.205.3.307.364.427a.954.954 0 0 1 .103.315c.019.135-.001.276-.042.558l-.545 3.793c-.138.962-.207 1.443-.037 1.732.136.23.362.394.624.451.33.072.768-.142 1.646-.57l3.458-1.688c.258-.125.387-.188.522-.211.11-.02.222-.02.332 0Z" fill="#261E2F"/></svg>