<svg width="24" height="24" fill="none" xmlns="http://www.w3.org/2000/svg"><path fill-rule="evenodd" clip-rule="evenodd" d="M9.65 10.6c0-.11.09-.2.2-.2h1.2c.11 0 .2.09.2.2v5.6a.2.2 0 0 1-.2.2h-1.2a.2.2 0 0 1-.2-.2v-5.6ZM12.75 10.6c0-.11.09-.2.2-.2h1.2c.11 0 .2.09.2.2v5.6a.2.2 0 0 1-.2.2h-1.2a.2.2 0 0 1-.2-.2v-5.6Z" fill="#000"/><path fill-rule="evenodd" clip-rule="evenodd" d="m9.657 5.6-.412.9h5.573l-.36-.9H9.657Zm6.885.9-.699-1.746A1.2 1.2 0 0 0 14.73 4H9.4a1.2 1.2 0 0 0-1.09.701L7.485 6.5H3.9a.4.4 0 0 0-.4.4v.8c0 .22.18.4.4.4h1.6l.186 10.429a1.6 1.6 0 0 0 1.6 1.571h9.428a1.6 1.6 0 0 0 1.6-1.571L18.5 8.1h1.6a.4.4 0 0 0 .4-.4v-.8a.4.4 0 0 0-.4-.4h-3.558Zm.358 1.6H7.1l.186 10.4h9.428L16.9 8.1Z" fill="#000"/></svg>