<svg width="24" height="24" fill="none" xmlns="http://www.w3.org/2000/svg"><path fill-rule="evenodd" clip-rule="evenodd" d="M15.92 4.85H8.08c-.881 0-1.444.001-1.87.037-.409.034-.547.09-.605.12a1.4 1.4 0 0 0-.597.598c-.03.058-.087.196-.121.604-.036.427-.037.99-.037 1.871v7.84c0 .881.001 1.444.037 1.87.034.409.09.547.12.605a1.4 1.4 0 0 0 .598.597c.058.03.196.087.604.121.427.036.99.037 1.871.037h7.84c.881 0 1.444-.001 1.87-.037.409-.034.547-.09.605-.12a1.4 1.4 0 0 0 .597-.598c.03-.058.087-.196.121-.604.036-.427.037-.99.037-1.871V8.08c0-.881-.001-1.444-.037-1.87-.034-.409-.09-.547-.12-.605a1.4 1.4 0 0 0-.598-.597c-.058-.03-.196-.087-.604-.121-.427-.036-.99-.037-1.871-.037Zm-12.332.017c-.338.65-.338 1.505-.338 3.213v7.84c0 1.708 0 2.563.338 3.213a3 3 0 0 0 1.28 1.28c.65.337 1.504.337 3.212.337h7.84c1.708 0 2.563 0 3.213-.338a3 3 0 0 0 1.28-1.28c.337-.65.337-1.504.337-3.212V8.08c0-1.708 0-2.563-.338-3.213a3 3 0 0 0-1.28-1.28c-.65-.337-1.504-.337-3.212-.337H8.08c-1.708 0-2.563 0-3.213.338a3 3 0 0 0-1.28 1.28Z" fill="#261E2F"/><path fill-rule="evenodd" clip-rule="evenodd" d="M8 8.6c0-.22.18-.4.4-.4h7.2c.22 0 .4.18.4.4v.8a.4.4 0 0 1-.4.4h-2.8v6.3a.4.4 0 0 1-.4.4h-.8a.4.4 0 0 1-.4-.4V9.8H8.4a.4.4 0 0 1-.4-.4v-.8Z" fill="#261E2F"/></svg>