<svg width="24" height="24" fill="none" xmlns="http://www.w3.org/2000/svg"><path fill-rule="evenodd" clip-rule="evenodd" d="M12 3a4.8 4.8 0 0 0-4.8 4.8v2.7H7a2 2 0 0 0-2 2v6a2 2 0 0 0 2 2h10a2 2 0 0 0 2-2v-6a2 2 0 0 0-2-2H8.8V7.8a3.2 3.2 0 0 1 6.047-1.463.21.21 0 0 0 .25.107l1.15-.377a.193.193 0 0 0 .12-.264A4.8 4.8 0 0 0 12 3Zm-5.4 9.5v6c0 .22.18.4.4.4h10a.4.4 0 0 0 .4-.4v-6a.4.4 0 0 0-.4-.4H7a.4.4 0 0 0-.4.4Zm4.867 4.5a.267.267 0 0 1-.267-.267v-2.466c0-.148.12-.267.267-.267h1.066c.148 0 .267.12.267.267v2.466c0 .148-.12.267-.267.267h-1.066Z" fill="#261E2F"/></svg>